<?xml version="1.0" encoding="utf-8" standalone="no"?>
<!DOCTYPE svg PUBLIC "-//W3C//DTD SVG 1.1//EN"
  "http://www.w3.org/Graphics/SVG/1.1/DTD/svg11.dtd">
<svg xmlns:xlink="http://www.w3.org/1999/xlink" width="256.56pt" height="161.28pt" viewBox="0 0 256.56 161.28" xmlns="http://www.w3.org/2000/svg" version="1.1">
 <metadata>
  <rdf:RDF xmlns:dc="http://purl.org/dc/elements/1.1/" xmlns:cc="http://creativecommons.org/ns#" xmlns:rdf="http://www.w3.org/1999/02/22-rdf-syntax-ns#">
   <cc:Work>
    <dc:type rdf:resource="http://purl.org/dc/dcmitype/StillImage"/>
    <dc:date>2026-03-29T18:13:23.852304</dc:date>
    <dc:format>image/svg+xml</dc:format>
    <dc:creator>
     <cc:Agent>
      <dc:title>Matplotlib v3.10.8, https://matplotlib.org/</dc:title>
     </cc:Agent>
    </dc:creator>
   </cc:Work>
  </rdf:RDF>
 </metadata>
 <defs>
  <style type="text/css">*{stroke-linejoin: round; stroke-linecap: butt}</style>
 </defs>
 <g id="figure_1">
  <g id="patch_1">
   <path d="M 0 161.28 
L 256.56 161.28 
L 256.56 0 
L 0 0 
L 0 161.28 
z
" style="fill: none"/>
  </g>
  <g id="patch_2">
   <path d="M 3.6 157.68 
L 252.96 157.68 
L 252.96 3.6 
L 3.6 3.6 
L 3.6 157.68 
z
" style="fill: none; stroke: #ffffff; stroke-linejoin: miter"/>
  </g>
  <g id="axes_1">
   <g id="patch_3">
    <path d="M 53.330667 144.540204 
L 250.4664 144.540204 
L 250.4664 6.093204 
L 53.330667 6.093204 
L 53.330667 144.540204 
z
" style="fill: none"/>
   </g>
   <g id="matplotlib.axis_1">
    <g id="xtick_1">
     <g id="text_1">
      <!-- 6am -->
      <g style="fill: #666666" transform="translate(60.523457 153.428204) scale(0.088 -0.088)">
       <defs>
        <path id="IBMPlexSerif-Regular-36" d="M 1926 -77 
C 2778 -77 3418 506 3418 1363 
C 3418 2208 2906 2765 2093 2765 
C 1510 2765 1171 2432 1037 2125 
L 998 2131 
C 1094 3226 1805 4070 2899 4282 
L 2816 4544 
C 1478 4333 416 3322 416 1702 
C 416 589 947 -77 1926 -77 
z
M 1920 237 
C 1274 237 1005 685 1005 1274 
L 1005 1389 
C 1005 1978 1274 2426 1920 2426 
C 2566 2426 2835 1978 2835 1389 
L 2835 1274 
C 2835 685 2566 237 1920 237 
z
" transform="scale(0.015625)"/>
        <path id="IBMPlexSerif-Regular-61" d="M 1299 -77 
C 1888 -77 2144 198 2266 486 
L 2298 486 
L 2298 442 
C 2298 128 2483 -77 2816 -77 
C 3008 -77 3174 -19 3270 51 
L 3270 275 
L 2790 275 
L 2790 2355 
C 2790 3002 2381 3379 1690 3379 
C 922 3379 474 3021 474 2650 
C 474 2406 621 2278 826 2278 
C 1037 2278 1178 2406 1178 2630 
C 1178 2816 1069 2912 973 2963 
L 973 2976 
C 1088 3046 1293 3085 1510 3085 
C 2010 3085 2266 2797 2266 2278 
L 2266 1792 
L 1792 1792 
C 710 1792 320 1453 320 819 
C 320 269 691 -77 1299 -77 
z
M 1523 275 
C 1126 275 890 448 890 774 
L 890 909 
C 890 1312 1114 1536 1850 1536 
L 2266 1536 
L 2266 915 
C 2266 486 1933 275 1523 275 
z
" transform="scale(0.015625)"/>
        <path id="IBMPlexSerif-Regular-6d" d="M 320 0 
L 1792 0 
L 1792 294 
L 1318 294 
L 1318 2355 
C 1318 2797 1696 3014 2080 3014 
C 2592 3014 2835 2714 2835 2093 
L 2835 294 
L 2362 294 
L 2362 0 
L 3834 0 
L 3834 294 
L 3360 294 
L 3360 2355 
C 3360 2797 3738 3014 4115 3014 
C 4627 3014 4877 2714 4877 2093 
L 4877 294 
L 4403 294 
L 4403 0 
L 5875 0 
L 5875 294 
L 5402 294 
L 5402 2131 
C 5402 2957 5088 3379 4301 3379 
C 3725 3379 3430 3034 3296 2726 
L 3277 2726 
C 3149 3168 2822 3379 2259 3379 
C 1747 3379 1434 3072 1331 2803 
L 1306 2803 
L 1306 3379 
L 320 3187 
L 320 2970 
L 794 2886 
L 794 294 
L 320 294 
L 320 0 
z
" transform="scale(0.015625)"/>
       </defs>
       <use xlink:href="#IBMPlexSerif-Regular-36"/>
       <use xlink:href="#IBMPlexSerif-Regular-61" transform="translate(59.999985 0)"/>
       <use xlink:href="#IBMPlexSerif-Regular-6d" transform="translate(114.599976 0)"/>
      </g>
     </g>
    </g>
    <g id="xtick_2">
     <g id="text_2">
      <!-- 9am -->
      <g style="fill: #666666" transform="translate(87.90342 153.428204) scale(0.088 -0.088)">
       <defs>
        <path id="IBMPlexSerif-Regular-39" d="M 1024 -77 
C 2362 134 3424 1146 3424 2765 
C 3424 3878 2893 4544 1914 4544 
C 1062 4544 422 3962 422 3104 
C 422 2259 934 1702 1747 1702 
C 2330 1702 2669 2035 2803 2342 
L 2842 2336 
C 2746 1242 2035 397 941 186 
L 1024 -77 
z
M 1920 2042 
C 1274 2042 1005 2490 1005 3078 
L 1005 3194 
C 1005 3782 1274 4230 1920 4230 
C 2566 4230 2835 3782 2835 3194 
L 2835 3078 
C 2835 2490 2566 2042 1920 2042 
z
" transform="scale(0.015625)"/>
       </defs>
       <use xlink:href="#IBMPlexSerif-Regular-39"/>
       <use xlink:href="#IBMPlexSerif-Regular-61" transform="translate(59.999985 0)"/>
       <use xlink:href="#IBMPlexSerif-Regular-6d" transform="translate(114.599976 0)"/>
      </g>
     </g>
    </g>
    <g id="xtick_3">
     <g id="text_3">
      <!-- 12pm -->
      <g style="fill: #666666" transform="translate(112.348445 153.428204) scale(0.088 -0.088)">
       <defs>
        <path id="IBMPlexSerif-Regular-31" d="M 563 0 
L 3290 0 
L 3290 288 
L 2221 288 
L 2221 4467 
L 1728 4467 
L 422 3770 
L 518 3494 
L 1670 4026 
L 1670 288 
L 563 288 
L 563 0 
z
" transform="scale(0.015625)"/>
        <path id="IBMPlexSerif-Regular-32" d="M 390 0 
L 3296 0 
L 3296 1114 
L 2976 1114 
L 2976 493 
L 864 493 
L 864 518 
L 2074 1587 
C 2643 2080 3110 2560 3110 3322 
C 3110 4083 2573 4544 1715 4544 
C 998 4544 442 4166 442 3738 
C 442 3482 589 3315 826 3315 
C 1050 3315 1210 3482 1210 3706 
C 1210 3891 1088 4032 979 4077 
L 979 4090 
C 1107 4166 1331 4237 1626 4237 
C 2176 4237 2509 3898 2509 3366 
L 2509 3226 
C 2509 2714 2266 2304 1843 1882 
L 390 416 
L 390 0 
z
" transform="scale(0.015625)"/>
        <path id="IBMPlexSerif-Regular-70" d="M 256 -1280 
L 1856 -1280 
L 1856 -986 
L 1254 -986 
L 1254 493 
L 1280 493 
C 1421 179 1741 -77 2253 -77 
C 3072 -77 3603 531 3603 1651 
C 3603 2771 3072 3379 2253 3379 
C 1734 3379 1427 3117 1280 2803 
L 1254 2803 
L 1254 3379 
L 256 3187 
L 256 2970 
L 730 2886 
L 730 -986 
L 256 -986 
L 256 -1280 
z
M 2099 288 
C 1683 288 1254 531 1254 947 
L 1254 2355 
C 1254 2771 1683 3014 2099 3014 
C 2688 3014 3034 2579 3034 1920 
L 3034 1382 
C 3034 723 2688 288 2099 288 
z
" transform="scale(0.015625)"/>
       </defs>
       <use xlink:href="#IBMPlexSerif-Regular-31"/>
       <use xlink:href="#IBMPlexSerif-Regular-32" transform="translate(59.999985 0)"/>
       <use xlink:href="#IBMPlexSerif-Regular-70" transform="translate(119.999969 0)"/>
       <use xlink:href="#IBMPlexSerif-Regular-6d" transform="translate(181.299957 0)"/>
      </g>
     </g>
    </g>
    <g id="xtick_4">
     <g id="text_4">
      <!-- 3pm -->
      <g style="fill: #666666" transform="translate(142.368408 153.428204) scale(0.088 -0.088)">
       <defs>
        <path id="IBMPlexSerif-Regular-33" d="M 1734 -77 
C 2675 -77 3328 410 3328 1216 
C 3328 1888 2790 2253 2285 2349 
L 2285 2374 
C 2778 2490 3232 2835 3232 3418 
C 3232 4173 2586 4544 1805 4544 
C 1037 4544 544 4128 544 3738 
C 544 3482 691 3315 922 3315 
C 1152 3315 1312 3482 1312 3706 
C 1312 3878 1197 4026 1082 4077 
L 1082 4090 
C 1216 4173 1459 4230 1773 4230 
C 2291 4230 2630 3987 2630 3507 
L 2630 3264 
C 2630 2822 2298 2490 1677 2490 
L 1197 2490 
L 1197 2176 
L 1715 2176 
C 2368 2176 2726 1856 2726 1318 
L 2726 1101 
C 2726 544 2323 237 1658 237 
C 1331 237 1094 294 954 378 
L 954 390 
C 1062 435 1184 582 1184 755 
C 1184 986 1030 1152 800 1152 
C 576 1152 416 986 416 730 
C 416 333 928 -77 1734 -77 
z
" transform="scale(0.015625)"/>
       </defs>
       <use xlink:href="#IBMPlexSerif-Regular-33"/>
       <use xlink:href="#IBMPlexSerif-Regular-70" transform="translate(59.999985 0)"/>
       <use xlink:href="#IBMPlexSerif-Regular-6d" transform="translate(121.299973 0)"/>
      </g>
     </g>
    </g>
    <g id="xtick_5">
     <g id="text_5">
      <!-- 6pm -->
      <g style="fill: #666666" transform="translate(169.748371 153.428204) scale(0.088 -0.088)">
       <use xlink:href="#IBMPlexSerif-Regular-36"/>
       <use xlink:href="#IBMPlexSerif-Regular-70" transform="translate(59.999985 0)"/>
       <use xlink:href="#IBMPlexSerif-Regular-6d" transform="translate(121.299973 0)"/>
      </g>
     </g>
    </g>
    <g id="xtick_6">
     <g id="text_6">
      <!-- 9pm -->
      <g style="fill: #666666" transform="translate(197.128334 153.428204) scale(0.088 -0.088)">
       <use xlink:href="#IBMPlexSerif-Regular-39"/>
       <use xlink:href="#IBMPlexSerif-Regular-70" transform="translate(59.999985 0)"/>
       <use xlink:href="#IBMPlexSerif-Regular-6d" transform="translate(121.299973 0)"/>
      </g>
     </g>
    </g>
    <g id="xtick_7">
     <g id="text_7">
      <!-- 12am -->
      <g style="fill: #666666" transform="translate(222.163235 153.428204) scale(0.088 -0.088)">
       <use xlink:href="#IBMPlexSerif-Regular-31"/>
       <use xlink:href="#IBMPlexSerif-Regular-32" transform="translate(59.999985 0)"/>
       <use xlink:href="#IBMPlexSerif-Regular-61" transform="translate(119.999969 0)"/>
       <use xlink:href="#IBMPlexSerif-Regular-6d" transform="translate(174.59996 0)"/>
      </g>
     </g>
    </g>
   </g>
   <g id="matplotlib.axis_2">
    <g id="ytick_1">
     <g id="text_8">
      <!-- Bronx -->
      <g style="fill: #666666" transform="translate(25.812792 136.346954) scale(0.088 -0.088)">
       <defs>
        <path id="IBMPlexSerif-Regular-42" d="M 352 0 
L 2682 0 
C 3366 0 3859 486 3859 1242 
C 3859 1946 3296 2291 2848 2323 
L 2848 2342 
C 3277 2419 3686 2778 3686 3411 
C 3686 4045 3232 4467 2490 4467 
L 352 4467 
L 352 4173 
L 832 4173 
L 832 294 
L 352 294 
L 352 0 
z
M 1382 2150 
L 2483 2150 
C 2976 2150 3270 1824 3270 1376 
L 3270 1094 
C 3270 640 2976 314 2483 314 
L 1382 314 
L 1382 2150 
z
M 1382 4154 
L 2381 4154 
C 2835 4154 3098 3859 3098 3450 
L 3098 3168 
C 3098 2758 2835 2464 2381 2464 
L 1382 2464 
L 1382 4154 
z
" transform="scale(0.015625)"/>
        <path id="IBMPlexSerif-Regular-72" d="M 320 0 
L 1920 0 
L 1920 294 
L 1318 294 
L 1318 2355 
C 1318 2714 1709 3104 2067 3104 
C 2144 3104 2195 3098 2227 3091 
L 2227 3078 
C 2131 3066 2048 2950 2048 2778 
C 2048 2586 2195 2445 2426 2445 
C 2630 2445 2771 2598 2771 2854 
C 2771 3194 2522 3379 2150 3379 
C 1690 3379 1459 3072 1338 2803 
L 1306 2803 
L 1306 3379 
L 320 3187 
L 320 2970 
L 794 2886 
L 794 294 
L 320 294 
L 320 0 
z
" transform="scale(0.015625)"/>
        <path id="IBMPlexSerif-Regular-6f" d="M 1805 237 
C 1165 237 883 698 883 1306 
L 883 1997 
C 883 2605 1165 3066 1805 3066 
C 2445 3066 2726 2605 2726 1997 
L 2726 1306 
C 2726 698 2445 237 1805 237 
z
M 1805 -77 
C 2714 -77 3322 602 3322 1651 
C 3322 2701 2714 3379 1805 3379 
C 896 3379 288 2701 288 1651 
C 288 602 896 -77 1805 -77 
z
" transform="scale(0.015625)"/>
        <path id="IBMPlexSerif-Regular-6e" d="M 320 0 
L 1792 0 
L 1792 294 
L 1318 294 
L 1318 2362 
C 1318 2803 1722 3014 2093 3014 
C 2618 3014 2867 2714 2867 2093 
L 2867 294 
L 2394 294 
L 2394 0 
L 3866 0 
L 3866 294 
L 3392 294 
L 3392 2138 
C 3392 2963 3072 3379 2278 3379 
C 1760 3379 1434 3066 1331 2803 
L 1306 2803 
L 1306 3379 
L 320 3187 
L 320 2970 
L 794 2886 
L 794 294 
L 320 294 
L 320 0 
z
" transform="scale(0.015625)"/>
        <path id="IBMPlexSerif-Regular-78" d="M 198 0 
L 1357 0 
L 1357 294 
L 960 294 
L 1690 1363 
L 1715 1363 
L 2426 294 
L 2048 294 
L 2048 0 
L 3398 0 
L 3398 294 
L 3066 294 
L 2086 1709 
L 3002 3008 
L 3366 3008 
L 3366 3302 
L 2208 3302 
L 2208 3008 
L 2605 3008 
L 1926 1958 
L 1901 1958 
L 1184 3008 
L 1562 3008 
L 1562 3302 
L 218 3302 
L 218 3008 
L 550 3008 
L 1530 1613 
L 563 294 
L 198 294 
L 198 0 
z
" transform="scale(0.015625)"/>
       </defs>
       <use xlink:href="#IBMPlexSerif-Regular-42"/>
       <use xlink:href="#IBMPlexSerif-Regular-72" transform="translate(66.999985 0)"/>
       <use xlink:href="#IBMPlexSerif-Regular-6f" transform="translate(111.299973 0)"/>
       <use xlink:href="#IBMPlexSerif-Regular-6e" transform="translate(167.699966 0)"/>
       <use xlink:href="#IBMPlexSerif-Regular-78" transform="translate(231.59996 0)"/>
      </g>
     </g>
    </g>
    <g id="ytick_2">
     <g id="text_9">
      <!-- LaGuardia -->
      <g style="fill: #666666" transform="translate(7.677917 113.272454) scale(0.088 -0.088)">
       <defs>
        <path id="IBMPlexSerif-Regular-4c" d="M 352 0 
L 3482 0 
L 3482 1133 
L 3021 1133 
L 3021 314 
L 1382 314 
L 1382 4173 
L 1862 4173 
L 1862 4467 
L 352 4467 
L 352 4173 
L 832 4173 
L 832 294 
L 352 294 
L 352 0 
z
" transform="scale(0.015625)"/>
        <path id="IBMPlexSerif-Regular-47" d="M 2182 -77 
C 2874 -77 3264 282 3405 621 
L 3430 621 
L 3738 0 
L 3949 0 
L 3949 1862 
L 4358 1862 
L 4358 2157 
L 2598 2157 
L 2598 1862 
L 3392 1862 
L 3392 1267 
C 3392 640 2899 301 2246 301 
C 1459 301 934 902 934 1830 
L 934 2650 
C 934 3584 1370 4205 2310 4205 
C 3002 4205 3430 3949 3430 3475 
L 3430 3162 
L 3891 3162 
L 3891 4467 
L 3430 4467 
L 3430 4058 
L 3398 4058 
C 3296 4320 2931 4544 2240 4544 
C 1062 4544 320 3725 320 2234 
C 320 794 1062 -77 2182 -77 
z
" transform="scale(0.015625)"/>
        <path id="IBMPlexSerif-Regular-75" d="M 1779 -77 
C 2298 -77 2624 237 2726 499 
L 2752 499 
L 2752 -77 
L 3738 115 
L 3738 333 
L 3264 416 
L 3264 3379 
L 2266 3187 
L 2266 2970 
L 2739 2886 
L 2739 941 
C 2739 499 2342 288 1965 288 
C 1440 288 1190 589 1190 1216 
L 1190 3379 
L 192 3187 
L 192 2970 
L 666 2886 
L 666 1171 
C 666 339 986 -77 1779 -77 
z
" transform="scale(0.015625)"/>
        <path id="IBMPlexSerif-Regular-64" d="M 1670 -77 
C 2189 -77 2496 186 2643 499 
L 2669 499 
L 2669 -77 
L 3667 115 
L 3667 333 
L 3194 416 
L 3194 4864 
L 2189 4678 
L 2189 4454 
L 2669 4371 
L 2669 2810 
L 2643 2810 
C 2502 3123 2182 3379 1670 3379 
C 851 3379 320 2771 320 1651 
C 320 531 851 -77 1670 -77 
z
M 1824 288 
C 1235 288 890 723 890 1382 
L 890 1920 
C 890 2579 1235 3014 1824 3014 
C 2240 3014 2669 2771 2669 2355 
L 2669 947 
C 2669 531 2240 288 1824 288 
z
" transform="scale(0.015625)"/>
        <path id="IBMPlexSerif-Regular-69" d="M 1056 4064 
C 1274 4064 1402 4218 1402 4403 
L 1402 4435 
C 1402 4621 1274 4774 1056 4774 
C 838 4774 717 4621 717 4435 
L 717 4403 
C 717 4218 838 4064 1056 4064 
z
M 320 0 
L 1792 0 
L 1792 294 
L 1318 294 
L 1318 3379 
L 320 3187 
L 320 2970 
L 794 2886 
L 794 294 
L 320 294 
L 320 0 
z
" transform="scale(0.015625)"/>
       </defs>
       <use xlink:href="#IBMPlexSerif-Regular-4c"/>
       <use xlink:href="#IBMPlexSerif-Regular-61" transform="translate(59.399994 0)"/>
       <use xlink:href="#IBMPlexSerif-Regular-47" transform="translate(113.999985 0)"/>
       <use xlink:href="#IBMPlexSerif-Regular-75" transform="translate(186.099976 0)"/>
       <use xlink:href="#IBMPlexSerif-Regular-61" transform="translate(247.999969 0)"/>
       <use xlink:href="#IBMPlexSerif-Regular-72" transform="translate(302.59996 0)"/>
       <use xlink:href="#IBMPlexSerif-Regular-64" transform="translate(346.899948 0)"/>
       <use xlink:href="#IBMPlexSerif-Regular-69" transform="translate(407.699936 0)"/>
       <use xlink:href="#IBMPlexSerif-Regular-61" transform="translate(439.199921 0)"/>
      </g>
     </g>
    </g>
    <g id="ytick_3">
     <g id="text_10">
      <!-- JFK -->
      <g style="fill: #666666" transform="translate(35.378667 90.197954) scale(0.088 -0.088)">
       <defs>
        <path id="IBMPlexSerif-Regular-4a" d="M 979 -77 
C 1715 -77 2157 288 2157 1018 
L 2157 4173 
L 2637 4173 
L 2637 4467 
L 998 4467 
L 998 4173 
L 1606 4173 
L 1606 966 
C 1606 448 1395 205 979 205 
C 832 205 710 224 627 250 
L 627 269 
C 723 301 826 410 826 582 
C 826 800 698 954 486 954 
C 243 954 96 774 96 538 
C 96 179 397 -77 979 -77 
z
" transform="scale(0.015625)"/>
        <path id="IBMPlexSerif-Regular-46" d="M 352 0 
L 1990 0 
L 1990 294 
L 1382 294 
L 1382 2048 
L 2650 2048 
L 2650 1536 
L 3034 1536 
L 3034 2874 
L 2650 2874 
L 2650 2362 
L 1382 2362 
L 1382 4154 
L 3194 4154 
L 3194 3392 
L 3654 3392 
L 3654 4467 
L 352 4467 
L 352 4173 
L 832 4173 
L 832 294 
L 352 294 
L 352 0 
z
" transform="scale(0.015625)"/>
        <path id="IBMPlexSerif-Regular-4b" d="M 352 0 
L 1862 0 
L 1862 294 
L 1382 294 
L 1382 1600 
L 2016 2285 
L 3309 294 
L 2854 294 
L 2854 0 
L 4384 0 
L 4384 294 
L 3942 294 
L 2400 2682 
L 3782 4173 
L 4211 4173 
L 4211 4467 
L 2835 4467 
L 2835 4173 
L 3347 4173 
L 2003 2707 
L 1408 2035 
L 1382 2035 
L 1382 4173 
L 1862 4173 
L 1862 4467 
L 352 4467 
L 352 4173 
L 832 4173 
L 832 294 
L 352 294 
L 352 0 
z
" transform="scale(0.015625)"/>
       </defs>
       <use xlink:href="#IBMPlexSerif-Regular-4a"/>
       <use xlink:href="#IBMPlexSerif-Regular-46" transform="translate(45.699997 0)"/>
       <use xlink:href="#IBMPlexSerif-Regular-4b" transform="translate(108.299988 0)"/>
      </g>
     </g>
    </g>
    <g id="ytick_4">
     <g id="text_11">
      <!-- Queens -->
      <g style="fill: #666666" transform="translate(20.032292 67.123454) scale(0.088 -0.088)">
       <defs>
        <path id="IBMPlexSerif-Regular-51" d="M 3290 -1107 
L 3629 -1107 
L 3629 -813 
L 3437 -813 
C 3149 -813 3040 -723 2848 -454 
L 2560 -58 
C 3597 64 4262 915 4262 2234 
C 4262 3661 3475 4544 2291 4544 
C 1107 4544 320 3661 320 2234 
C 320 941 966 96 1965 -51 
L 2374 -653 
C 2592 -979 2797 -1107 3290 -1107 
z
M 2291 262 
C 1414 262 934 934 934 1869 
L 934 2598 
C 934 3533 1414 4205 2291 4205 
C 3168 4205 3648 3533 3648 2598 
L 3648 1869 
C 3648 934 3168 262 2291 262 
z
" transform="scale(0.015625)"/>
        <path id="IBMPlexSerif-Regular-65" d="M 1786 -77 
C 2483 -77 2912 346 3078 787 
L 2867 922 
C 2688 576 2394 333 1869 333 
C 1267 333 870 781 870 1504 
L 870 1670 
L 3142 1670 
L 3142 1818 
C 3142 2726 2624 3379 1760 3379 
C 915 3379 288 2675 288 1651 
C 288 608 845 -77 1786 -77 
z
M 870 2042 
C 870 2637 1184 3078 1760 3078 
C 2342 3078 2592 2624 2592 2029 
L 2592 1965 
L 870 1965 
L 870 2042 
z
" transform="scale(0.015625)"/>
        <path id="IBMPlexSerif-Regular-73" d="M 1613 -77 
C 2342 -77 2778 346 2778 890 
C 2778 1453 2445 1754 1792 1888 
L 1434 1965 
C 1094 2042 883 2246 883 2547 
C 883 2899 1139 3066 1574 3066 
C 2061 3066 2291 2893 2291 2554 
L 2291 2310 
L 2675 2310 
L 2675 3302 
L 2291 3302 
L 2291 3034 
L 2266 3034 
C 2182 3238 1907 3379 1504 3379 
C 832 3379 397 3027 397 2451 
C 397 1894 723 1574 1350 1440 
L 1734 1357 
C 2086 1280 2278 1082 2278 787 
C 2278 403 1997 237 1510 237 
C 986 237 768 493 768 858 
L 768 992 
L 384 992 
L 384 0 
L 768 0 
L 768 326 
L 794 326 
C 890 122 1210 -77 1613 -77 
z
" transform="scale(0.015625)"/>
       </defs>
       <use xlink:href="#IBMPlexSerif-Regular-51"/>
       <use xlink:href="#IBMPlexSerif-Regular-75" transform="translate(71.599991 0)"/>
       <use xlink:href="#IBMPlexSerif-Regular-65" transform="translate(133.499985 0)"/>
       <use xlink:href="#IBMPlexSerif-Regular-65" transform="translate(187.099976 0)"/>
       <use xlink:href="#IBMPlexSerif-Regular-6e" transform="translate(240.699966 0)"/>
       <use xlink:href="#IBMPlexSerif-Regular-73" transform="translate(304.59996 0)"/>
      </g>
     </g>
    </g>
    <g id="ytick_5">
     <g id="text_12">
      <!-- Brooklyn -->
      <g style="fill: #666666" transform="translate(13.305792 44.048954) scale(0.088 -0.088)">
       <defs>
        <path id="IBMPlexSerif-Regular-6b" d="M 224 0 
L 1696 0 
L 1696 294 
L 1222 294 
L 1222 1107 
L 1779 1690 
L 2707 294 
L 2298 294 
L 2298 0 
L 3661 0 
L 3661 294 
L 3296 294 
L 2138 2042 
L 3066 3008 
L 3533 3008 
L 3533 3302 
L 2163 3302 
L 2163 3008 
L 2598 3008 
L 1792 2118 
L 1254 1517 
L 1222 1517 
L 1222 4864 
L 224 4678 
L 224 4454 
L 698 4371 
L 698 294 
L 224 294 
L 224 0 
z
" transform="scale(0.015625)"/>
        <path id="IBMPlexSerif-Regular-6c" d="M 224 0 
L 1696 0 
L 1696 294 
L 1222 294 
L 1222 4864 
L 224 4678 
L 224 4454 
L 698 4371 
L 698 294 
L 224 294 
L 224 0 
z
" transform="scale(0.015625)"/>
        <path id="IBMPlexSerif-Regular-79" d="M 787 -1357 
C 1222 -1357 1523 -1018 1702 -550 
L 3072 3008 
L 3405 3008 
L 3405 3302 
L 2240 3302 
L 2240 3008 
L 2701 3008 
L 1837 589 
L 1811 589 
L 922 3008 
L 1382 3008 
L 1382 3302 
L 13 3302 
L 13 3008 
L 346 3008 
L 1562 -134 
L 1427 -499 
C 1261 -928 1037 -1114 813 -1114 
C 742 -1114 698 -1107 646 -1088 
L 646 -1069 
C 730 -1043 819 -947 819 -806 
C 819 -608 704 -486 512 -486 
C 288 -486 166 -634 166 -858 
C 166 -1152 358 -1357 787 -1357 
z
" transform="scale(0.015625)"/>
       </defs>
       <use xlink:href="#IBMPlexSerif-Regular-42"/>
       <use xlink:href="#IBMPlexSerif-Regular-72" transform="translate(66.999985 0)"/>
       <use xlink:href="#IBMPlexSerif-Regular-6f" transform="translate(111.299973 0)"/>
       <use xlink:href="#IBMPlexSerif-Regular-6f" transform="translate(167.699966 0)"/>
       <use xlink:href="#IBMPlexSerif-Regular-6b" transform="translate(224.09996 0)"/>
       <use xlink:href="#IBMPlexSerif-Regular-6c" transform="translate(282.499954 0)"/>
       <use xlink:href="#IBMPlexSerif-Regular-79" transform="translate(312.499939 0)"/>
       <use xlink:href="#IBMPlexSerif-Regular-6e" transform="translate(365.899933 0)"/>
      </g>
     </g>
    </g>
    <g id="ytick_6">
     <g id="text_13">
      <!-- Manhattan -->
      <g style="fill: #666666" transform="translate(6.092542 20.974454) scale(0.088 -0.088)">
       <defs>
        <path id="IBMPlexSerif-Regular-4d" d="M 352 0 
L 1664 0 
L 1664 294 
L 1184 294 
L 1184 3821 
L 1210 3821 
L 1568 3040 
L 2662 749 
L 3891 3200 
L 4173 3821 
L 4198 3821 
L 4198 294 
L 3718 294 
L 3718 0 
L 5229 0 
L 5229 294 
L 4749 294 
L 4749 4173 
L 5229 4173 
L 5229 4467 
L 4173 4467 
L 2803 1702 
L 2784 1702 
L 1478 4467 
L 352 4467 
L 352 4173 
L 832 4173 
L 832 294 
L 352 294 
L 352 0 
z
" transform="scale(0.015625)"/>
        <path id="IBMPlexSerif-Regular-68" d="M 224 0 
L 1696 0 
L 1696 294 
L 1222 294 
L 1222 2362 
C 1222 2803 1626 3014 1997 3014 
C 2528 3014 2771 2714 2771 2093 
L 2771 294 
L 2298 294 
L 2298 0 
L 3770 0 
L 3770 294 
L 3296 294 
L 3296 2138 
C 3296 2963 2982 3379 2189 3379 
C 1664 3379 1350 3072 1248 2810 
L 1222 2810 
L 1222 4864 
L 224 4678 
L 224 4454 
L 698 4371 
L 698 294 
L 224 294 
L 224 0 
z
" transform="scale(0.015625)"/>
        <path id="IBMPlexSerif-Regular-74" d="M 1293 -38 
C 1587 -38 1926 26 2074 102 
L 2074 314 
L 1222 314 
L 1222 2989 
L 2074 2989 
L 2074 3302 
L 1222 3302 
L 1222 4160 
L 934 4160 
L 787 3590 
C 736 3398 685 3302 333 3302 
L 275 3302 
L 275 2989 
L 698 2989 
L 698 570 
C 698 128 838 -38 1293 -38 
z
" transform="scale(0.015625)"/>
       </defs>
       <use xlink:href="#IBMPlexSerif-Regular-4d"/>
       <use xlink:href="#IBMPlexSerif-Regular-61" transform="translate(87.199982 0)"/>
       <use xlink:href="#IBMPlexSerif-Regular-6e" transform="translate(141.799973 0)"/>
       <use xlink:href="#IBMPlexSerif-Regular-68" transform="translate(205.699966 0)"/>
       <use xlink:href="#IBMPlexSerif-Regular-61" transform="translate(268.09996 0)"/>
       <use xlink:href="#IBMPlexSerif-Regular-74" transform="translate(322.699951 0)"/>
       <use xlink:href="#IBMPlexSerif-Regular-74" transform="translate(357.999939 0)"/>
       <use xlink:href="#IBMPlexSerif-Regular-61" transform="translate(393.299927 0)"/>
       <use xlink:href="#IBMPlexSerif-Regular-6e" transform="translate(447.899918 0)"/>
      </g>
     </g>
    </g>
   </g>
   <g id="PolyCollection_1">
    <path d="M 220.348441 144.540204 
L 220.348441 121.465704 
L 247.728404 121.465704 
L 247.728404 144.540204 
z
" clip-path="url(#p58e180688c)" style="fill: #f0f0f0; stroke: #ffffff; stroke-width: 2.658681"/>
    <path d="M 110.828589 144.540204 
L 110.828589 121.465704 
L 138.208552 121.465704 
L 138.208552 144.540204 
z
" clip-path="url(#p58e180688c)" style="fill: #d5d5d5; stroke: #ffffff; stroke-width: 2.658681"/>
    <path d="M 138.208552 144.540204 
L 138.208552 121.465704 
L 165.588515 121.465704 
L 165.588515 144.540204 
z
" clip-path="url(#p58e180688c)" style="fill: #dadada; stroke: #ffffff; stroke-width: 2.658681"/>
    <path d="M 56.068663 144.540204 
L 56.068663 121.465704 
L 83.448626 121.465704 
L 83.448626 144.540204 
z
" clip-path="url(#p58e180688c)" style="fill: #e6e6e6; stroke: #ffffff; stroke-width: 2.658681"/>
    <path d="M 165.588515 144.540204 
L 165.588515 121.465704 
L 192.968478 121.465704 
L 192.968478 144.540204 
z
" clip-path="url(#p58e180688c)" style="fill: #bbbbbb; stroke: #ffffff; stroke-width: 2.658681"/>
    <path d="M 83.448626 144.540204 
L 83.448626 121.465704 
L 110.828589 121.465704 
L 110.828589 144.540204 
z
" clip-path="url(#p58e180688c)" style="fill: #d4d4d4; stroke: #ffffff; stroke-width: 2.658681"/>
    <path d="M 192.968478 144.540204 
L 192.968478 121.465704 
L 220.348441 121.465704 
L 220.348441 144.540204 
z
" clip-path="url(#p58e180688c)" style="fill: #d8d8d8; stroke: #ffffff; stroke-width: 2.658681"/>
    <path d="M 220.348441 52.242204 
L 220.348441 29.167704 
L 247.728404 29.167704 
L 247.728404 52.242204 
z
" clip-path="url(#p58e180688c)" style="fill: #dfdfdf; stroke: #ffffff; stroke-width: 2.658681"/>
    <path d="M 110.828589 52.242204 
L 110.828589 29.167704 
L 138.208552 29.167704 
L 138.208552 52.242204 
z
" clip-path="url(#p58e180688c)" style="fill: #9e9e9e; stroke: #ffffff; stroke-width: 2.658681"/>
    <path d="M 138.208552 52.242204 
L 138.208552 29.167704 
L 165.588515 29.167704 
L 165.588515 52.242204 
z
" clip-path="url(#p58e180688c)" style="fill: #b2b2b2; stroke: #ffffff; stroke-width: 2.658681"/>
    <path d="M 56.068663 52.242204 
L 56.068663 29.167704 
L 83.448626 29.167704 
L 83.448626 52.242204 
z
" clip-path="url(#p58e180688c)" style="fill: #dbdbdb; stroke: #ffffff; stroke-width: 2.658681"/>
    <path d="M 165.588515 52.242204 
L 165.588515 29.167704 
L 192.968478 29.167704 
L 192.968478 52.242204 
z
" clip-path="url(#p58e180688c)" style="fill: #6c6c6c; stroke: #ffffff; stroke-width: 2.658681"/>
    <path d="M 83.448626 52.242204 
L 83.448626 29.167704 
L 110.828589 29.167704 
L 110.828589 52.242204 
z
" clip-path="url(#p58e180688c)" style="fill: #8d8d8d; stroke: #ffffff; stroke-width: 2.658681"/>
    <path d="M 192.968478 52.242204 
L 192.968478 29.167704 
L 220.348441 29.167704 
L 220.348441 52.242204 
z
" clip-path="url(#p58e180688c)" style="fill: #a8a8a8; stroke: #ffffff; stroke-width: 2.658681"/>
    <path d="M 220.348441 98.391204 
L 220.348441 75.316704 
L 247.728404 75.316704 
L 247.728404 98.391204 
z
" clip-path="url(#p58e180688c)" style="fill: #c4c4c4; stroke: #ffffff; stroke-width: 2.658681"/>
    <path d="M 110.828589 98.391204 
L 110.828589 75.316704 
L 138.208552 75.316704 
L 138.208552 98.391204 
z
" clip-path="url(#p58e180688c)" style="fill: #b2b2b2; stroke: #ffffff; stroke-width: 2.658681"/>
    <path d="M 138.208552 98.391204 
L 138.208552 75.316704 
L 165.588515 75.316704 
L 165.588515 98.391204 
z
" clip-path="url(#p58e180688c)" style="fill: #979797; stroke: #ffffff; stroke-width: 2.658681"/>
    <path d="M 56.068663 98.391204 
L 56.068663 75.316704 
L 83.448626 75.316704 
L 83.448626 98.391204 
z
" clip-path="url(#p58e180688c)" style="fill: #c6c6c6; stroke: #ffffff; stroke-width: 2.658681"/>
    <path d="M 165.588515 98.391204 
L 165.588515 75.316704 
L 192.968478 75.316704 
L 192.968478 98.391204 
z
" clip-path="url(#p58e180688c)" style="fill: #626262; stroke: #ffffff; stroke-width: 2.658681"/>
    <path d="M 83.448626 98.391204 
L 83.448626 75.316704 
L 110.828589 75.316704 
L 110.828589 98.391204 
z
" clip-path="url(#p58e180688c)" style="fill: #747474; stroke: #ffffff; stroke-width: 2.658681"/>
    <path d="M 192.968478 98.391204 
L 192.968478 75.316704 
L 220.348441 75.316704 
L 220.348441 98.391204 
z
" clip-path="url(#p58e180688c)" style="fill: #7e7e7e; stroke: #ffffff; stroke-width: 2.658681"/>
    <path d="M 220.348441 121.465704 
L 220.348441 98.391204 
L 247.728404 98.391204 
L 247.728404 121.465704 
z
" clip-path="url(#p58e180688c)" style="fill: #d2d2d2; stroke: #ffffff; stroke-width: 2.658681"/>
    <path d="M 110.828589 121.465704 
L 110.828589 98.391204 
L 138.208552 98.391204 
L 138.208552 121.465704 
z
" clip-path="url(#p58e180688c)" style="fill: #c1c1c1; stroke: #ffffff; stroke-width: 2.658681"/>
    <path d="M 138.208552 121.465704 
L 138.208552 98.391204 
L 165.588515 98.391204 
L 165.588515 121.465704 
z
" clip-path="url(#p58e180688c)" style="fill: #aeaeae; stroke: #ffffff; stroke-width: 2.658681"/>
    <path d="M 56.068663 121.465704 
L 56.068663 98.391204 
L 83.448626 98.391204 
L 83.448626 121.465704 
z
" clip-path="url(#p58e180688c)" style="fill: #d8d8d8; stroke: #ffffff; stroke-width: 2.658681"/>
    <path d="M 165.588515 121.465704 
L 165.588515 98.391204 
L 192.968478 98.391204 
L 192.968478 121.465704 
z
" clip-path="url(#p58e180688c)" style="fill: #727272; stroke: #ffffff; stroke-width: 2.658681"/>
    <path d="M 83.448626 121.465704 
L 83.448626 98.391204 
L 110.828589 98.391204 
L 110.828589 121.465704 
z
" clip-path="url(#p58e180688c)" style="fill: #868686; stroke: #ffffff; stroke-width: 2.658681"/>
    <path d="M 192.968478 121.465704 
L 192.968478 98.391204 
L 220.348441 98.391204 
L 220.348441 121.465704 
z
" clip-path="url(#p58e180688c)" style="fill: #a7a7a7; stroke: #ffffff; stroke-width: 2.658681"/>
    <path d="M 220.348441 29.167704 
L 220.348441 6.093204 
L 247.728404 6.093204 
L 247.728404 29.167704 
z
" clip-path="url(#p58e180688c)" style="fill: #d2d2d2; stroke: #ffffff; stroke-width: 2.658681"/>
    <path d="M 110.828589 29.167704 
L 110.828589 6.093204 
L 138.208552 6.093204 
L 138.208552 29.167704 
z
" clip-path="url(#p58e180688c)" style="fill: #6f6f6f; stroke: #ffffff; stroke-width: 2.658681"/>
    <path d="M 138.208552 29.167704 
L 138.208552 6.093204 
L 165.588515 6.093204 
L 165.588515 29.167704 
z
" clip-path="url(#p58e180688c)" style="fill: #7f7f7f; stroke: #ffffff; stroke-width: 2.658681"/>
    <path d="M 56.068663 29.167704 
L 56.068663 6.093204 
L 83.448626 6.093204 
L 83.448626 29.167704 
z
" clip-path="url(#p58e180688c)" style="fill: #a7a7a7; stroke: #ffffff; stroke-width: 2.658681"/>
    <path d="M 165.588515 29.167704 
L 165.588515 6.093204 
L 192.968478 6.093204 
L 192.968478 29.167704 
z
" clip-path="url(#p58e180688c)" style="fill: #484848; stroke: #ffffff; stroke-width: 2.658681"/>
    <path d="M 83.448626 29.167704 
L 83.448626 6.093204 
L 110.828589 6.093204 
L 110.828589 29.167704 
z
" clip-path="url(#p58e180688c)" style="fill: #333333; stroke: #ffffff; stroke-width: 2.658681"/>
    <path d="M 192.968478 29.167704 
L 192.968478 6.093204 
L 220.348441 6.093204 
L 220.348441 29.167704 
z
" clip-path="url(#p58e180688c)" style="fill: #969696; stroke: #ffffff; stroke-width: 2.658681"/>
    <path d="M 220.348441 75.316704 
L 220.348441 52.242204 
L 247.728404 52.242204 
L 247.728404 75.316704 
z
" clip-path="url(#p58e180688c)" style="fill: #e6e6e6; stroke: #ffffff; stroke-width: 2.658681"/>
    <path d="M 110.828589 75.316704 
L 110.828589 52.242204 
L 138.208552 52.242204 
L 138.208552 75.316704 
z
" clip-path="url(#p58e180688c)" style="fill: #c9c9c9; stroke: #ffffff; stroke-width: 2.658681"/>
    <path d="M 138.208552 75.316704 
L 138.208552 52.242204 
L 165.588515 52.242204 
L 165.588515 75.316704 
z
" clip-path="url(#p58e180688c)" style="fill: #bebebe; stroke: #ffffff; stroke-width: 2.658681"/>
    <path d="M 56.068663 75.316704 
L 56.068663 52.242204 
L 83.448626 52.242204 
L 83.448626 75.316704 
z
" clip-path="url(#p58e180688c)" style="fill: #ececec; stroke: #ffffff; stroke-width: 2.658681"/>
    <path d="M 165.588515 75.316704 
L 165.588515 52.242204 
L 192.968478 52.242204 
L 192.968478 75.316704 
z
" clip-path="url(#p58e180688c)" style="fill: #a1a1a1; stroke: #ffffff; stroke-width: 2.658681"/>
    <path d="M 83.448626 75.316704 
L 83.448626 52.242204 
L 110.828589 52.242204 
L 110.828589 75.316704 
z
" clip-path="url(#p58e180688c)" style="fill: #bebebe; stroke: #ffffff; stroke-width: 2.658681"/>
    <path d="M 192.968478 75.316704 
L 192.968478 52.242204 
L 220.348441 52.242204 
L 220.348441 75.316704 
z
" clip-path="url(#p58e180688c)" style="fill: #d8d8d8; stroke: #ffffff; stroke-width: 2.658681"/>
   </g>
   <g id="text_14">
    <g clip-path="url(#p58e180688c)">
     <!-- 6,170 -->
     <g style="fill: #333333" transform="translate(63.503176 134.275219) scale(0.05 -0.05)">
      <defs>
       <path id="Helvetica-36" d="M 1872 4494 
Q 2622 4494 2917 4105 
Q 3213 3716 3213 3303 
L 2656 3303 
Q 2606 3569 2497 3719 
Q 2294 4000 1881 4000 
Q 1409 4000 1131 3564 
Q 853 3128 822 2316 
Q 1016 2600 1309 2741 
Q 1578 2866 1909 2866 
Q 2472 2866 2890 2506 
Q 3309 2147 3309 1434 
Q 3309 825 2912 354 
Q 2516 -116 1781 -116 
Q 1153 -116 697 361 
Q 241 838 241 1966 
Q 241 2800 444 3381 
Q 834 4494 1872 4494 
z
M 1831 384 
Q 2275 384 2495 682 
Q 2716 981 2716 1388 
Q 2716 1731 2519 2042 
Q 2322 2353 1803 2353 
Q 1441 2353 1167 2112 
Q 894 1872 894 1388 
Q 894 963 1142 673 
Q 1391 384 1831 384 
z
" transform="scale(0.015625)"/>
       <path id="Helvetica-2c" d="M 531 -653 
Q 747 -616 834 -350 
Q 881 -209 881 -78 
Q 881 -56 879 -39 
Q 878 -22 872 0 
L 531 0 
L 531 681 
L 1200 681 
L 1200 50 
Q 1200 -322 1050 -603 
Q 900 -884 531 -950 
L 531 -653 
z
" transform="scale(0.015625)"/>
       <path id="Helvetica-31" d="M 613 3169 
L 613 3600 
Q 1222 3659 1462 3798 
Q 1703 3938 1822 4456 
L 2266 4456 
L 2266 0 
L 1666 0 
L 1666 3169 
L 613 3169 
z
" transform="scale(0.015625)"/>
       <path id="Helvetica-37" d="M 3347 4400 
L 3347 3909 
Q 3131 3700 2773 3181 
Q 2416 2663 2141 2063 
Q 1869 1478 1728 997 
Q 1638 688 1494 0 
L 872 0 
Q 1084 1281 1809 2550 
Q 2238 3294 2709 3834 
L 234 3834 
L 234 4400 
L 3347 4400 
z
" transform="scale(0.015625)"/>
       <path id="Helvetica-30" d="M 1731 4475 
Q 2600 4475 2988 3759 
Q 3288 3206 3288 2244 
Q 3288 1331 3016 734 
Q 2622 -122 1728 -122 
Q 922 -122 528 578 
Q 200 1163 200 2147 
Q 200 2909 397 3456 
Q 766 4475 1731 4475 
z
M 1725 391 
Q 2163 391 2422 778 
Q 2681 1166 2681 2222 
Q 2681 2984 2493 3476 
Q 2306 3969 1766 3969 
Q 1269 3969 1039 3501 
Q 809 3034 809 2125 
Q 809 1441 956 1025 
Q 1181 391 1725 391 
z
" transform="scale(0.015625)"/>
      </defs>
      <use xlink:href="#Helvetica-36"/>
      <use xlink:href="#Helvetica-2c" transform="translate(55.615234 0)"/>
      <use xlink:href="#Helvetica-31" transform="translate(83.398438 0)"/>
      <use xlink:href="#Helvetica-37" transform="translate(139.013672 0)"/>
      <use xlink:href="#Helvetica-30" transform="translate(194.628906 0)"/>
     </g>
    </g>
   </g>
   <g id="text_15">
    <g clip-path="url(#p58e180688c)">
     <!-- 9,912 -->
     <g style="fill: #333333" transform="translate(63.503176 111.200719) scale(0.05 -0.05)">
      <defs>
       <path id="Helvetica-39" d="M 850 1081 
Q 875 616 1209 438 
Q 1381 344 1597 344 
Q 2000 344 2284 680 
Q 2569 1016 2688 2044 
Q 2500 1747 2223 1626 
Q 1947 1506 1628 1506 
Q 981 1506 604 1909 
Q 228 2313 228 2947 
Q 228 3556 600 4018 
Q 972 4481 1697 4481 
Q 2675 4481 3047 3600 
Q 3253 3116 3253 2388 
Q 3253 1566 3006 931 
Q 2597 -125 1619 -125 
Q 963 -125 622 219 
Q 281 563 281 1081 
L 850 1081 
z
M 1703 2000 
Q 2038 2000 2314 2220 
Q 2591 2441 2591 2991 
Q 2591 3484 2342 3726 
Q 2094 3969 1709 3969 
Q 1297 3969 1055 3692 
Q 813 3416 813 2953 
Q 813 2516 1025 2258 
Q 1238 2000 1703 2000 
z
" transform="scale(0.015625)"/>
       <path id="Helvetica-32" d="M 200 0 
Q 231 578 439 1006 
Q 647 1434 1250 1784 
L 1850 2131 
Q 2253 2366 2416 2531 
Q 2672 2791 2672 3125 
Q 2672 3516 2437 3745 
Q 2203 3975 1813 3975 
Q 1234 3975 1013 3538 
Q 894 3303 881 2888 
L 309 2888 
Q 319 3472 525 3841 
Q 891 4491 1816 4491 
Q 2584 4491 2939 4075 
Q 3294 3659 3294 3150 
Q 3294 2613 2916 2231 
Q 2697 2009 2131 1694 
L 1703 1456 
Q 1397 1288 1222 1134 
Q 909 863 828 531 
L 3272 531 
L 3272 0 
L 200 0 
z
" transform="scale(0.015625)"/>
      </defs>
      <use xlink:href="#Helvetica-39"/>
      <use xlink:href="#Helvetica-2c" transform="translate(55.615234 0)"/>
      <use xlink:href="#Helvetica-39" transform="translate(83.398438 0)"/>
      <use xlink:href="#Helvetica-31" transform="translate(139.013672 0)"/>
      <use xlink:href="#Helvetica-32" transform="translate(194.628906 0)"/>
     </g>
    </g>
   </g>
   <g id="text_16">
    <g clip-path="url(#p58e180688c)">
     <!-- 14,212 -->
     <g style="fill: #333333" transform="translate(62.112941 88.126219) scale(0.05 -0.05)">
      <defs>
       <path id="Helvetica-34" d="M 2116 1584 
L 2116 3613 
L 681 1584 
L 2116 1584 
z
M 2125 0 
L 2125 1094 
L 163 1094 
L 163 1644 
L 2213 4488 
L 2688 4488 
L 2688 1584 
L 3347 1584 
L 3347 1094 
L 2688 1094 
L 2688 0 
L 2125 0 
z
" transform="scale(0.015625)"/>
      </defs>
      <use xlink:href="#Helvetica-31"/>
      <use xlink:href="#Helvetica-34" transform="translate(55.615234 0)"/>
      <use xlink:href="#Helvetica-2c" transform="translate(111.230469 0)"/>
      <use xlink:href="#Helvetica-32" transform="translate(139.013672 0)"/>
      <use xlink:href="#Helvetica-31" transform="translate(194.628906 0)"/>
      <use xlink:href="#Helvetica-32" transform="translate(250.244141 0)"/>
     </g>
    </g>
   </g>
   <g id="text_17">
    <g clip-path="url(#p58e180688c)">
     <!-- 4,999 -->
     <g style="fill: #333333" transform="translate(63.503176 65.051719) scale(0.05 -0.05)">
      <use xlink:href="#Helvetica-34"/>
      <use xlink:href="#Helvetica-2c" transform="translate(55.615234 0)"/>
      <use xlink:href="#Helvetica-39" transform="translate(83.398438 0)"/>
      <use xlink:href="#Helvetica-39" transform="translate(139.013672 0)"/>
      <use xlink:href="#Helvetica-39" transform="translate(194.628906 0)"/>
     </g>
    </g>
   </g>
   <g id="text_18">
    <g clip-path="url(#p58e180688c)">
     <!-- 8,900 -->
     <g style="fill: #333333" transform="translate(63.503176 41.977219) scale(0.05 -0.05)">
      <defs>
       <path id="Helvetica-38" d="M 1741 2600 
Q 2113 2600 2322 2808 
Q 2531 3016 2531 3303 
Q 2531 3553 2331 3762 
Q 2131 3972 1722 3972 
Q 1316 3972 1134 3762 
Q 953 3553 953 3272 
Q 953 2956 1187 2778 
Q 1422 2600 1741 2600 
z
M 1775 384 
Q 2166 384 2423 595 
Q 2681 806 2681 1225 
Q 2681 1659 2415 1884 
Q 2150 2109 1734 2109 
Q 1331 2109 1076 1879 
Q 822 1650 822 1244 
Q 822 894 1055 639 
Q 1288 384 1775 384 
z
M 975 2384 
Q 741 2484 609 2619 
Q 363 2869 363 3269 
Q 363 3769 725 4128 
Q 1088 4488 1753 4488 
Q 2397 4488 2762 4148 
Q 3128 3809 3128 3356 
Q 3128 2938 2916 2678 
Q 2797 2531 2547 2391 
Q 2825 2263 2984 2097 
Q 3281 1784 3281 1284 
Q 3281 694 2884 283 
Q 2488 -128 1763 -128 
Q 1109 -128 657 226 
Q 206 581 206 1256 
Q 206 1653 400 1942 
Q 594 2231 975 2384 
z
" transform="scale(0.015625)"/>
      </defs>
      <use xlink:href="#Helvetica-38"/>
      <use xlink:href="#Helvetica-2c" transform="translate(55.615234 0)"/>
      <use xlink:href="#Helvetica-39" transform="translate(83.398438 0)"/>
      <use xlink:href="#Helvetica-30" transform="translate(139.013672 0)"/>
      <use xlink:href="#Helvetica-30" transform="translate(194.628906 0)"/>
     </g>
    </g>
   </g>
   <g id="text_19">
    <g clip-path="url(#p58e180688c)">
     <!-- 21,779 -->
     <g style="fill: #333333" transform="translate(62.112941 18.902719) scale(0.05 -0.05)">
      <use xlink:href="#Helvetica-32"/>
      <use xlink:href="#Helvetica-31" transform="translate(55.615234 0)"/>
      <use xlink:href="#Helvetica-2c" transform="translate(111.230469 0)"/>
      <use xlink:href="#Helvetica-37" transform="translate(139.013672 0)"/>
      <use xlink:href="#Helvetica-37" transform="translate(194.628906 0)"/>
      <use xlink:href="#Helvetica-39" transform="translate(250.244141 0)"/>
     </g>
    </g>
   </g>
   <g id="text_20">
    <g clip-path="url(#p58e180688c)">
     <!-- 10,801 -->
     <g style="fill: #333333" transform="translate(89.492904 134.275219) scale(0.05 -0.05)">
      <use xlink:href="#Helvetica-31"/>
      <use xlink:href="#Helvetica-30" transform="translate(55.615234 0)"/>
      <use xlink:href="#Helvetica-2c" transform="translate(111.230469 0)"/>
      <use xlink:href="#Helvetica-38" transform="translate(139.013672 0)"/>
      <use xlink:href="#Helvetica-30" transform="translate(194.628906 0)"/>
      <use xlink:href="#Helvetica-31" transform="translate(250.244141 0)"/>
     </g>
    </g>
   </g>
   <g id="text_21">
    <g clip-path="url(#p58e180688c)">
     <!-- 16,284 -->
     <g style="fill: #333333" transform="translate(89.492904 65.051719) scale(0.05 -0.05)">
      <use xlink:href="#Helvetica-31"/>
      <use xlink:href="#Helvetica-36" transform="translate(55.615234 0)"/>
      <use xlink:href="#Helvetica-2c" transform="translate(111.230469 0)"/>
      <use xlink:href="#Helvetica-32" transform="translate(139.013672 0)"/>
      <use xlink:href="#Helvetica-38" transform="translate(194.628906 0)"/>
      <use xlink:href="#Helvetica-34" transform="translate(250.244141 0)"/>
     </g>
    </g>
   </g>
   <g id="text_22">
    <g clip-path="url(#p58e180688c)">
     <!-- 28,222 -->
     <g style="fill: #333333" transform="translate(89.492904 41.977219) scale(0.05 -0.05)">
      <use xlink:href="#Helvetica-32"/>
      <use xlink:href="#Helvetica-38" transform="translate(55.615234 0)"/>
      <use xlink:href="#Helvetica-2c" transform="translate(111.230469 0)"/>
      <use xlink:href="#Helvetica-32" transform="translate(139.013672 0)"/>
      <use xlink:href="#Helvetica-32" transform="translate(194.628906 0)"/>
      <use xlink:href="#Helvetica-32" transform="translate(250.244141 0)"/>
     </g>
    </g>
   </g>
   <g id="text_23">
    <g clip-path="url(#p58e180688c)">
     <!-- 10,488 -->
     <g style="fill: #333333" transform="translate(116.872867 134.275219) scale(0.05 -0.05)">
      <use xlink:href="#Helvetica-31"/>
      <use xlink:href="#Helvetica-30" transform="translate(55.615234 0)"/>
      <use xlink:href="#Helvetica-2c" transform="translate(111.230469 0)"/>
      <use xlink:href="#Helvetica-34" transform="translate(139.013672 0)"/>
      <use xlink:href="#Helvetica-38" transform="translate(194.628906 0)"/>
      <use xlink:href="#Helvetica-38" transform="translate(250.244141 0)"/>
     </g>
    </g>
   </g>
   <g id="text_24">
    <g clip-path="url(#p58e180688c)">
     <!-- 15,330 -->
     <g style="fill: #333333" transform="translate(116.872867 111.200719) scale(0.05 -0.05)">
      <defs>
       <path id="Helvetica-35" d="M 791 1141 
Q 847 659 1238 475 
Q 1438 381 1700 381 
Q 2200 381 2440 700 
Q 2681 1019 2681 1406 
Q 2681 1875 2395 2131 
Q 2109 2388 1709 2388 
Q 1419 2388 1211 2275 
Q 1003 2163 856 1963 
L 369 1991 
L 709 4400 
L 3034 4400 
L 3034 3856 
L 1131 3856 
L 941 2613 
Q 1097 2731 1238 2791 
Q 1488 2894 1816 2894 
Q 2431 2894 2859 2497 
Q 3288 2100 3288 1491 
Q 3288 856 2895 371 
Q 2503 -113 1644 -113 
Q 1097 -113 676 195 
Q 256 503 206 1141 
L 791 1141 
z
" transform="scale(0.015625)"/>
       <path id="Helvetica-33" d="M 1663 -122 
Q 869 -122 511 314 
Q 153 750 153 1375 
L 741 1375 
Q 778 941 903 744 
Q 1122 391 1694 391 
Q 2138 391 2406 628 
Q 2675 866 2675 1241 
Q 2675 1703 2392 1887 
Q 2109 2072 1606 2072 
Q 1550 2072 1492 2070 
Q 1434 2069 1375 2066 
L 1375 2563 
Q 1463 2553 1522 2550 
Q 1581 2547 1650 2547 
Q 1966 2547 2169 2647 
Q 2525 2822 2525 3272 
Q 2525 3606 2287 3787 
Q 2050 3969 1734 3969 
Q 1172 3969 956 3594 
Q 838 3388 822 3006 
L 266 3006 
Q 266 3506 466 3856 
Q 809 4481 1675 4481 
Q 2359 4481 2734 4176 
Q 3109 3872 3109 3294 
Q 3109 2881 2888 2625 
Q 2750 2466 2531 2375 
Q 2884 2278 3082 2001 
Q 3281 1725 3281 1325 
Q 3281 684 2859 281 
Q 2438 -122 1663 -122 
z
" transform="scale(0.015625)"/>
      </defs>
      <use xlink:href="#Helvetica-31"/>
      <use xlink:href="#Helvetica-35" transform="translate(55.615234 0)"/>
      <use xlink:href="#Helvetica-2c" transform="translate(111.230469 0)"/>
      <use xlink:href="#Helvetica-33" transform="translate(139.013672 0)"/>
      <use xlink:href="#Helvetica-33" transform="translate(194.628906 0)"/>
      <use xlink:href="#Helvetica-30" transform="translate(250.244141 0)"/>
     </g>
    </g>
   </g>
   <g id="text_25">
    <g clip-path="url(#p58e180688c)">
     <!-- 19,113 -->
     <g style="fill: #333333" transform="translate(116.872867 88.126219) scale(0.05 -0.05)">
      <use xlink:href="#Helvetica-31"/>
      <use xlink:href="#Helvetica-39" transform="translate(55.615234 0)"/>
      <use xlink:href="#Helvetica-2c" transform="translate(111.230469 0)"/>
      <use xlink:href="#Helvetica-31" transform="translate(139.013672 0)"/>
      <use xlink:href="#Helvetica-31" transform="translate(194.628906 0)"/>
      <use xlink:href="#Helvetica-33" transform="translate(250.244141 0)"/>
     </g>
    </g>
   </g>
   <g id="text_26">
    <g clip-path="url(#p58e180688c)">
     <!-- 13,525 -->
     <g style="fill: #333333" transform="translate(116.872867 65.051719) scale(0.05 -0.05)">
      <use xlink:href="#Helvetica-31"/>
      <use xlink:href="#Helvetica-33" transform="translate(55.615234 0)"/>
      <use xlink:href="#Helvetica-2c" transform="translate(111.230469 0)"/>
      <use xlink:href="#Helvetica-35" transform="translate(139.013672 0)"/>
      <use xlink:href="#Helvetica-32" transform="translate(194.628906 0)"/>
      <use xlink:href="#Helvetica-35" transform="translate(250.244141 0)"/>
     </g>
    </g>
   </g>
   <g id="text_27">
    <g clip-path="url(#p58e180688c)">
     <!-- 24,200 -->
     <g style="fill: #333333" transform="translate(116.872867 41.977219) scale(0.05 -0.05)">
      <use xlink:href="#Helvetica-32"/>
      <use xlink:href="#Helvetica-34" transform="translate(55.615234 0)"/>
      <use xlink:href="#Helvetica-2c" transform="translate(111.230469 0)"/>
      <use xlink:href="#Helvetica-32" transform="translate(139.013672 0)"/>
      <use xlink:href="#Helvetica-30" transform="translate(194.628906 0)"/>
      <use xlink:href="#Helvetica-30" transform="translate(250.244141 0)"/>
     </g>
    </g>
   </g>
   <g id="text_28">
    <g clip-path="url(#p58e180688c)">
     <!-- 9,364 -->
     <g style="fill: #333333" transform="translate(145.643065 134.275219) scale(0.05 -0.05)">
      <use xlink:href="#Helvetica-39"/>
      <use xlink:href="#Helvetica-2c" transform="translate(55.615234 0)"/>
      <use xlink:href="#Helvetica-33" transform="translate(83.398438 0)"/>
      <use xlink:href="#Helvetica-36" transform="translate(139.013672 0)"/>
      <use xlink:href="#Helvetica-34" transform="translate(194.628906 0)"/>
     </g>
    </g>
   </g>
   <g id="text_29">
    <g clip-path="url(#p58e180688c)">
     <!-- 20,213 -->
     <g style="fill: #333333" transform="translate(144.25283 111.200719) scale(0.05 -0.05)">
      <use xlink:href="#Helvetica-32"/>
      <use xlink:href="#Helvetica-30" transform="translate(55.615234 0)"/>
      <use xlink:href="#Helvetica-2c" transform="translate(111.230469 0)"/>
      <use xlink:href="#Helvetica-32" transform="translate(139.013672 0)"/>
      <use xlink:href="#Helvetica-31" transform="translate(194.628906 0)"/>
      <use xlink:href="#Helvetica-33" transform="translate(250.244141 0)"/>
     </g>
    </g>
   </g>
   <g id="text_30">
    <g clip-path="url(#p58e180688c)">
     <!-- 25,877 -->
     <g style="fill: #333333" transform="translate(144.25283 88.126219) scale(0.05 -0.05)">
      <use xlink:href="#Helvetica-32"/>
      <use xlink:href="#Helvetica-35" transform="translate(55.615234 0)"/>
      <use xlink:href="#Helvetica-2c" transform="translate(111.230469 0)"/>
      <use xlink:href="#Helvetica-38" transform="translate(139.013672 0)"/>
      <use xlink:href="#Helvetica-37" transform="translate(194.628906 0)"/>
      <use xlink:href="#Helvetica-37" transform="translate(250.244141 0)"/>
     </g>
    </g>
   </g>
   <g id="text_31">
    <g clip-path="url(#p58e180688c)">
     <!-- 16,188 -->
     <g style="fill: #333333" transform="translate(144.25283 65.051719) scale(0.05 -0.05)">
      <use xlink:href="#Helvetica-31"/>
      <use xlink:href="#Helvetica-36" transform="translate(55.615234 0)"/>
      <use xlink:href="#Helvetica-2c" transform="translate(111.230469 0)"/>
      <use xlink:href="#Helvetica-31" transform="translate(139.013672 0)"/>
      <use xlink:href="#Helvetica-38" transform="translate(194.628906 0)"/>
      <use xlink:href="#Helvetica-38" transform="translate(250.244141 0)"/>
     </g>
    </g>
   </g>
   <g id="text_32">
    <g clip-path="url(#p58e180688c)">
     <!-- 19,140 -->
     <g style="fill: #333333" transform="translate(144.25283 41.977219) scale(0.05 -0.05)">
      <use xlink:href="#Helvetica-31"/>
      <use xlink:href="#Helvetica-39" transform="translate(55.615234 0)"/>
      <use xlink:href="#Helvetica-2c" transform="translate(111.230469 0)"/>
      <use xlink:href="#Helvetica-31" transform="translate(139.013672 0)"/>
      <use xlink:href="#Helvetica-34" transform="translate(194.628906 0)"/>
      <use xlink:href="#Helvetica-30" transform="translate(250.244141 0)"/>
     </g>
    </g>
   </g>
   <g id="text_33">
    <g clip-path="url(#p58e180688c)">
     <!-- 16,955 -->
     <g style="fill: #333333" transform="translate(171.632793 134.275219) scale(0.05 -0.05)">
      <use xlink:href="#Helvetica-31"/>
      <use xlink:href="#Helvetica-36" transform="translate(55.615234 0)"/>
      <use xlink:href="#Helvetica-2c" transform="translate(111.230469 0)"/>
      <use xlink:href="#Helvetica-39" transform="translate(139.013672 0)"/>
      <use xlink:href="#Helvetica-35" transform="translate(194.628906 0)"/>
      <use xlink:href="#Helvetica-35" transform="translate(250.244141 0)"/>
     </g>
    </g>
   </g>
   <g id="text_34">
    <g clip-path="url(#p58e180688c)">
     <!-- 23,476 -->
     <g style="fill: #333333" transform="translate(171.632793 65.051719) scale(0.05 -0.05)">
      <use xlink:href="#Helvetica-32"/>
      <use xlink:href="#Helvetica-33" transform="translate(55.615234 0)"/>
      <use xlink:href="#Helvetica-2c" transform="translate(111.230469 0)"/>
      <use xlink:href="#Helvetica-34" transform="translate(139.013672 0)"/>
      <use xlink:href="#Helvetica-37" transform="translate(194.628906 0)"/>
      <use xlink:href="#Helvetica-36" transform="translate(250.244141 0)"/>
     </g>
    </g>
   </g>
   <g id="text_35">
    <g clip-path="url(#p58e180688c)">
     <!-- 9,864 -->
     <g style="fill: #333333" transform="translate(200.402991 134.275219) scale(0.05 -0.05)">
      <use xlink:href="#Helvetica-39"/>
      <use xlink:href="#Helvetica-2c" transform="translate(55.615234 0)"/>
      <use xlink:href="#Helvetica-38" transform="translate(83.398438 0)"/>
      <use xlink:href="#Helvetica-36" transform="translate(139.013672 0)"/>
      <use xlink:href="#Helvetica-34" transform="translate(194.628906 0)"/>
     </g>
    </g>
   </g>
   <g id="text_36">
    <g clip-path="url(#p58e180688c)">
     <!-- 21,982 -->
     <g style="fill: #333333" transform="translate(199.012756 111.200719) scale(0.05 -0.05)">
      <use xlink:href="#Helvetica-32"/>
      <use xlink:href="#Helvetica-31" transform="translate(55.615234 0)"/>
      <use xlink:href="#Helvetica-2c" transform="translate(111.230469 0)"/>
      <use xlink:href="#Helvetica-39" transform="translate(139.013672 0)"/>
      <use xlink:href="#Helvetica-38" transform="translate(194.628906 0)"/>
      <use xlink:href="#Helvetica-32" transform="translate(250.244141 0)"/>
     </g>
    </g>
   </g>
   <g id="text_37">
    <g clip-path="url(#p58e180688c)">
     <!-- 9,871 -->
     <g style="fill: #333333" transform="translate(200.402991 65.051719) scale(0.05 -0.05)">
      <use xlink:href="#Helvetica-39"/>
      <use xlink:href="#Helvetica-2c" transform="translate(55.615234 0)"/>
      <use xlink:href="#Helvetica-38" transform="translate(83.398438 0)"/>
      <use xlink:href="#Helvetica-37" transform="translate(139.013672 0)"/>
      <use xlink:href="#Helvetica-31" transform="translate(194.628906 0)"/>
     </g>
    </g>
   </g>
   <g id="text_38">
    <g clip-path="url(#p58e180688c)">
     <!-- 21,650 -->
     <g style="fill: #333333" transform="translate(199.012756 41.977219) scale(0.05 -0.05)">
      <use xlink:href="#Helvetica-32"/>
      <use xlink:href="#Helvetica-31" transform="translate(55.615234 0)"/>
      <use xlink:href="#Helvetica-2c" transform="translate(111.230469 0)"/>
      <use xlink:href="#Helvetica-36" transform="translate(139.013672 0)"/>
      <use xlink:href="#Helvetica-35" transform="translate(194.628906 0)"/>
      <use xlink:href="#Helvetica-30" transform="translate(250.244141 0)"/>
     </g>
    </g>
   </g>
   <g id="text_39">
    <g clip-path="url(#p58e180688c)">
     <!-- 26,102 -->
     <g style="fill: #333333" transform="translate(199.012756 18.902719) scale(0.05 -0.05)">
      <use xlink:href="#Helvetica-32"/>
      <use xlink:href="#Helvetica-36" transform="translate(55.615234 0)"/>
      <use xlink:href="#Helvetica-2c" transform="translate(111.230469 0)"/>
      <use xlink:href="#Helvetica-31" transform="translate(139.013672 0)"/>
      <use xlink:href="#Helvetica-30" transform="translate(194.628906 0)"/>
      <use xlink:href="#Helvetica-32" transform="translate(250.244141 0)"/>
     </g>
    </g>
   </g>
   <g id="text_40">
    <g clip-path="url(#p58e180688c)">
     <!-- 3,861 -->
     <g style="fill: #333333" transform="translate(227.782953 134.275219) scale(0.05 -0.05)">
      <use xlink:href="#Helvetica-33"/>
      <use xlink:href="#Helvetica-2c" transform="translate(55.615234 0)"/>
      <use xlink:href="#Helvetica-38" transform="translate(83.398438 0)"/>
      <use xlink:href="#Helvetica-36" transform="translate(139.013672 0)"/>
      <use xlink:href="#Helvetica-31" transform="translate(194.628906 0)"/>
     </g>
    </g>
   </g>
   <g id="text_41">
    <g clip-path="url(#p58e180688c)">
     <!-- 11,230 -->
     <g style="fill: #333333" transform="translate(226.392719 111.200719) scale(0.05 -0.05)">
      <use xlink:href="#Helvetica-31"/>
      <use xlink:href="#Helvetica-31" transform="translate(55.615234 0)"/>
      <use xlink:href="#Helvetica-2c" transform="translate(111.230469 0)"/>
      <use xlink:href="#Helvetica-32" transform="translate(139.013672 0)"/>
      <use xlink:href="#Helvetica-33" transform="translate(194.628906 0)"/>
      <use xlink:href="#Helvetica-30" transform="translate(250.244141 0)"/>
     </g>
    </g>
   </g>
   <g id="text_42">
    <g clip-path="url(#p58e180688c)">
     <!-- 14,780 -->
     <g style="fill: #333333" transform="translate(226.392719 88.126219) scale(0.05 -0.05)">
      <use xlink:href="#Helvetica-31"/>
      <use xlink:href="#Helvetica-34" transform="translate(55.615234 0)"/>
      <use xlink:href="#Helvetica-2c" transform="translate(111.230469 0)"/>
      <use xlink:href="#Helvetica-37" transform="translate(139.013672 0)"/>
      <use xlink:href="#Helvetica-38" transform="translate(194.628906 0)"/>
      <use xlink:href="#Helvetica-30" transform="translate(250.244141 0)"/>
     </g>
    </g>
   </g>
   <g id="text_43">
    <g clip-path="url(#p58e180688c)">
     <!-- 6,265 -->
     <g style="fill: #333333" transform="translate(227.782953 65.051719) scale(0.05 -0.05)">
      <use xlink:href="#Helvetica-36"/>
      <use xlink:href="#Helvetica-2c" transform="translate(55.615234 0)"/>
      <use xlink:href="#Helvetica-32" transform="translate(83.398438 0)"/>
      <use xlink:href="#Helvetica-36" transform="translate(139.013672 0)"/>
      <use xlink:href="#Helvetica-35" transform="translate(194.628906 0)"/>
     </g>
    </g>
   </g>
   <g id="text_44">
    <g clip-path="url(#p58e180688c)">
     <!-- 8,021 -->
     <g style="fill: #333333" transform="translate(227.782953 41.977219) scale(0.05 -0.05)">
      <use xlink:href="#Helvetica-38"/>
      <use xlink:href="#Helvetica-2c" transform="translate(55.615234 0)"/>
      <use xlink:href="#Helvetica-30" transform="translate(83.398438 0)"/>
      <use xlink:href="#Helvetica-32" transform="translate(139.013672 0)"/>
      <use xlink:href="#Helvetica-31" transform="translate(194.628906 0)"/>
     </g>
    </g>
   </g>
   <g id="text_45">
    <g clip-path="url(#p58e180688c)">
     <!-- 11,334 -->
     <g style="fill: #333333" transform="translate(226.392719 18.902719) scale(0.05 -0.05)">
      <use xlink:href="#Helvetica-31"/>
      <use xlink:href="#Helvetica-31" transform="translate(55.615234 0)"/>
      <use xlink:href="#Helvetica-2c" transform="translate(111.230469 0)"/>
      <use xlink:href="#Helvetica-33" transform="translate(139.013672 0)"/>
      <use xlink:href="#Helvetica-33" transform="translate(194.628906 0)"/>
      <use xlink:href="#Helvetica-34" transform="translate(250.244141 0)"/>
     </g>
    </g>
   </g>
   <g id="text_46">
    <g clip-path="url(#p58e180688c)">
     <!-- 30,018 -->
     <g style="fill: #ffffff" transform="translate(89.492904 111.200719) scale(0.05 -0.05)">
      <use xlink:href="#Helvetica-33"/>
      <use xlink:href="#Helvetica-30" transform="translate(55.615234 0)"/>
      <use xlink:href="#Helvetica-2c" transform="translate(111.230469 0)"/>
      <use xlink:href="#Helvetica-30" transform="translate(139.013672 0)"/>
      <use xlink:href="#Helvetica-31" transform="translate(194.628906 0)"/>
      <use xlink:href="#Helvetica-38" transform="translate(250.244141 0)"/>
     </g>
    </g>
   </g>
   <g id="text_47">
    <g clip-path="url(#p58e180688c)">
     <!-- 34,366 -->
     <g style="fill: #ffffff" transform="translate(89.492904 88.126219) scale(0.05 -0.05)">
      <use xlink:href="#Helvetica-33"/>
      <use xlink:href="#Helvetica-34" transform="translate(55.615234 0)"/>
      <use xlink:href="#Helvetica-2c" transform="translate(111.230469 0)"/>
      <use xlink:href="#Helvetica-33" transform="translate(139.013672 0)"/>
      <use xlink:href="#Helvetica-36" transform="translate(194.628906 0)"/>
      <use xlink:href="#Helvetica-36" transform="translate(250.244141 0)"/>
     </g>
    </g>
   </g>
   <g id="text_48">
    <g clip-path="url(#p58e180688c)">
     <!-- 50,500 -->
     <g style="fill: #ffffff" transform="translate(89.492904 18.902719) scale(0.05 -0.05)">
      <use xlink:href="#Helvetica-35"/>
      <use xlink:href="#Helvetica-30" transform="translate(55.615234 0)"/>
      <use xlink:href="#Helvetica-2c" transform="translate(111.230469 0)"/>
      <use xlink:href="#Helvetica-35" transform="translate(139.013672 0)"/>
      <use xlink:href="#Helvetica-30" transform="translate(194.628906 0)"/>
      <use xlink:href="#Helvetica-30" transform="translate(250.244141 0)"/>
     </g>
    </g>
   </g>
   <g id="text_49">
    <g clip-path="url(#p58e180688c)">
     <!-- 35,736 -->
     <g style="fill: #ffffff" transform="translate(116.872867 18.902719) scale(0.05 -0.05)">
      <use xlink:href="#Helvetica-33"/>
      <use xlink:href="#Helvetica-35" transform="translate(55.615234 0)"/>
      <use xlink:href="#Helvetica-2c" transform="translate(111.230469 0)"/>
      <use xlink:href="#Helvetica-37" transform="translate(139.013672 0)"/>
      <use xlink:href="#Helvetica-33" transform="translate(194.628906 0)"/>
      <use xlink:href="#Helvetica-36" transform="translate(250.244141 0)"/>
     </g>
    </g>
   </g>
   <g id="text_50">
    <g clip-path="url(#p58e180688c)">
     <!-- 31,588 -->
     <g style="fill: #ffffff" transform="translate(144.25283 18.902719) scale(0.05 -0.05)">
      <use xlink:href="#Helvetica-33"/>
      <use xlink:href="#Helvetica-31" transform="translate(55.615234 0)"/>
      <use xlink:href="#Helvetica-2c" transform="translate(111.230469 0)"/>
      <use xlink:href="#Helvetica-35" transform="translate(139.013672 0)"/>
      <use xlink:href="#Helvetica-38" transform="translate(194.628906 0)"/>
      <use xlink:href="#Helvetica-38" transform="translate(250.244141 0)"/>
     </g>
    </g>
   </g>
   <g id="text_51">
    <g clip-path="url(#p58e180688c)">
     <!-- 35,037 -->
     <g style="fill: #ffffff" transform="translate(171.632793 111.200719) scale(0.05 -0.05)">
      <use xlink:href="#Helvetica-33"/>
      <use xlink:href="#Helvetica-35" transform="translate(55.615234 0)"/>
      <use xlink:href="#Helvetica-2c" transform="translate(111.230469 0)"/>
      <use xlink:href="#Helvetica-30" transform="translate(139.013672 0)"/>
      <use xlink:href="#Helvetica-33" transform="translate(194.628906 0)"/>
      <use xlink:href="#Helvetica-37" transform="translate(250.244141 0)"/>
     </g>
    </g>
   </g>
   <g id="text_52">
    <g clip-path="url(#p58e180688c)">
     <!-- 39,019 -->
     <g style="fill: #ffffff" transform="translate(171.632793 88.126219) scale(0.05 -0.05)">
      <use xlink:href="#Helvetica-33"/>
      <use xlink:href="#Helvetica-39" transform="translate(55.615234 0)"/>
      <use xlink:href="#Helvetica-2c" transform="translate(111.230469 0)"/>
      <use xlink:href="#Helvetica-30" transform="translate(139.013672 0)"/>
      <use xlink:href="#Helvetica-31" transform="translate(194.628906 0)"/>
      <use xlink:href="#Helvetica-39" transform="translate(250.244141 0)"/>
     </g>
    </g>
   </g>
   <g id="text_53">
    <g clip-path="url(#p58e180688c)">
     <!-- 36,494 -->
     <g style="fill: #ffffff" transform="translate(171.632793 41.977219) scale(0.05 -0.05)">
      <use xlink:href="#Helvetica-33"/>
      <use xlink:href="#Helvetica-36" transform="translate(55.615234 0)"/>
      <use xlink:href="#Helvetica-2c" transform="translate(111.230469 0)"/>
      <use xlink:href="#Helvetica-34" transform="translate(139.013672 0)"/>
      <use xlink:href="#Helvetica-39" transform="translate(194.628906 0)"/>
      <use xlink:href="#Helvetica-34" transform="translate(250.244141 0)"/>
     </g>
    </g>
   </g>
   <g id="text_54">
    <g clip-path="url(#p58e180688c)">
     <!-- 45,313 -->
     <g style="fill: #ffffff" transform="translate(171.632793 18.902719) scale(0.05 -0.05)">
      <use xlink:href="#Helvetica-34"/>
      <use xlink:href="#Helvetica-35" transform="translate(55.615234 0)"/>
      <use xlink:href="#Helvetica-2c" transform="translate(111.230469 0)"/>
      <use xlink:href="#Helvetica-33" transform="translate(139.013672 0)"/>
      <use xlink:href="#Helvetica-31" transform="translate(194.628906 0)"/>
      <use xlink:href="#Helvetica-33" transform="translate(250.244141 0)"/>
     </g>
    </g>
   </g>
   <g id="text_55">
    <g clip-path="url(#p58e180688c)">
     <!-- 31,961 -->
     <g style="fill: #ffffff" transform="translate(199.012756 88.126219) scale(0.05 -0.05)">
      <use xlink:href="#Helvetica-33"/>
      <use xlink:href="#Helvetica-31" transform="translate(55.615234 0)"/>
      <use xlink:href="#Helvetica-2c" transform="translate(111.230469 0)"/>
      <use xlink:href="#Helvetica-39" transform="translate(139.013672 0)"/>
      <use xlink:href="#Helvetica-36" transform="translate(194.628906 0)"/>
      <use xlink:href="#Helvetica-31" transform="translate(250.244141 0)"/>
     </g>
    </g>
   </g>
  </g>
 </g>
 <defs>
  <clipPath id="p58e180688c">
   <rect x="53.330667" y="6.093204" width="197.135733" height="138.447"/>
  </clipPath>
 </defs>
</svg>
