<?xml version="1.0" encoding="utf-8" standalone="no"?>
<!DOCTYPE svg PUBLIC "-//W3C//DTD SVG 1.1//EN"
  "http://www.w3.org/Graphics/SVG/1.1/DTD/svg11.dtd">
<svg xmlns:xlink="http://www.w3.org/1999/xlink" width="256.68pt" height="161.37864pt" viewBox="0 0 256.68 161.37864" xmlns="http://www.w3.org/2000/svg" version="1.1">
 <metadata>
  <rdf:RDF xmlns:dc="http://purl.org/dc/elements/1.1/" xmlns:cc="http://creativecommons.org/ns#" xmlns:rdf="http://www.w3.org/1999/02/22-rdf-syntax-ns#">
   <cc:Work>
    <dc:type rdf:resource="http://purl.org/dc/dcmitype/StillImage"/>
    <dc:date>2026-03-31T19:08:18.314646</dc:date>
    <dc:format>image/svg+xml</dc:format>
    <dc:creator>
     <cc:Agent>
      <dc:title>Matplotlib v3.10.8, https://matplotlib.org/</dc:title>
     </cc:Agent>
    </dc:creator>
   </cc:Work>
  </rdf:RDF>
 </metadata>
 <defs>
  <style type="text/css">*{stroke-linejoin: round; stroke-linecap: butt}</style>
 </defs>
 <g id="figure_1">
  <g id="patch_1">
   <path d="M 0 161.37864 
L 256.68 161.37864 
L 256.68 0 
L 0 0 
L 0 161.37864 
z
" style="fill: none"/>
  </g>
  <g id="patch_2">
   <path d="M 3.6 157.77864 
L 253.08 157.77864 
L 253.08 3.6 
L 3.6 3.6 
L 3.6 157.77864 
z
" style="fill: none; stroke: #ffffff; stroke-linejoin: miter"/>
  </g>
  <g id="axes_1">
   <g id="patch_3">
    <path d="M 53.332925 144.63584 
L 250.5852 144.63584 
L 250.5852 6.0948 
L 53.332925 6.0948 
L 53.332925 144.63584 
z
" style="fill: none"/>
   </g>
   <g id="matplotlib.axis_1">
    <g id="xtick_1">
     <g id="text_1">
      <!-- 6am -->
      <g style="fill: #666666" transform="translate(60.535427 153.52384) scale(0.088 -0.088)">
       <defs>
        <path id="IBMPlexSerif-36" d="M 1926 -77 
Q 1190 -77 803 393 
Q 416 864 416 1702 
Q 416 2310 601 2800 
Q 787 3290 1113 3651 
Q 1440 4013 1878 4240 
Q 2317 4467 2816 4544 
L 2899 4282 
Q 2490 4205 2154 4013 
Q 1818 3821 1574 3539 
Q 1331 3258 1184 2899 
Q 1037 2541 998 2131 
L 1037 2125 
Q 1088 2240 1177 2355 
Q 1267 2470 1398 2560 
Q 1530 2650 1702 2707 
Q 1875 2765 2093 2765 
Q 2400 2765 2643 2665 
Q 2886 2566 3059 2380 
Q 3232 2195 3325 1936 
Q 3418 1677 3418 1363 
Q 3418 1043 3306 777 
Q 3194 512 2992 323 
Q 2790 134 2518 28 
Q 2246 -77 1926 -77 
z
M 1920 237 
Q 2163 237 2336 317 
Q 2509 397 2621 534 
Q 2733 672 2784 861 
Q 2835 1050 2835 1274 
L 2835 1389 
Q 2835 1606 2784 1798 
Q 2733 1990 2621 2128 
Q 2509 2266 2336 2346 
Q 2163 2426 1920 2426 
Q 1677 2426 1504 2346 
Q 1331 2266 1219 2128 
Q 1107 1990 1056 1798 
Q 1005 1606 1005 1389 
L 1005 1274 
Q 1005 1050 1056 861 
Q 1107 672 1219 534 
Q 1331 397 1504 317 
Q 1677 237 1920 237 
z
" transform="scale(0.015625)"/>
        <path id="IBMPlexSerif-61" d="M 1299 -77 
Q 838 -77 579 163 
Q 320 403 320 819 
Q 320 1056 397 1238 
Q 474 1421 650 1542 
Q 826 1664 1107 1728 
Q 1389 1792 1792 1792 
L 2266 1792 
L 2266 2278 
Q 2266 2669 2077 2877 
Q 1888 3085 1510 3085 
Q 1344 3085 1203 3056 
Q 1062 3027 973 2976 
L 973 2963 
Q 1043 2925 1110 2848 
Q 1178 2771 1178 2630 
Q 1178 2464 1082 2371 
Q 986 2278 826 2278 
Q 672 2278 573 2371 
Q 474 2464 474 2650 
Q 474 2790 557 2921 
Q 640 3053 793 3155 
Q 947 3258 1174 3318 
Q 1402 3379 1690 3379 
Q 2208 3379 2499 3110 
Q 2790 2842 2790 2355 
L 2790 275 
L 3270 275 
L 3270 51 
Q 3200 0 3081 -38 
Q 2963 -77 2816 -77 
Q 2566 -77 2432 64 
Q 2298 205 2298 442 
L 2298 486 
L 2266 486 
Q 2221 378 2147 275 
Q 2074 173 1958 96 
Q 1843 19 1680 -29 
Q 1517 -77 1299 -77 
z
M 1523 275 
Q 1830 275 2048 432 
Q 2266 589 2266 915 
L 2266 1536 
L 1850 1536 
Q 1574 1536 1388 1494 
Q 1203 1453 1094 1373 
Q 986 1293 938 1177 
Q 890 1062 890 909 
L 890 774 
Q 890 531 1056 403 
Q 1222 275 1523 275 
z
" transform="scale(0.015625)"/>
        <path id="IBMPlexSerif-6d" d="M 320 294 
L 794 294 
L 794 2886 
L 320 2970 
L 320 3187 
L 1306 3379 
L 1306 2803 
L 1331 2803 
Q 1370 2906 1446 3008 
Q 1523 3110 1641 3193 
Q 1760 3277 1913 3328 
Q 2067 3379 2259 3379 
Q 2682 3379 2931 3219 
Q 3181 3059 3277 2726 
L 3296 2726 
Q 3347 2842 3430 2957 
Q 3514 3072 3635 3168 
Q 3757 3264 3920 3321 
Q 4083 3379 4301 3379 
Q 4896 3379 5149 3065 
Q 5402 2752 5402 2131 
L 5402 294 
L 5875 294 
L 5875 0 
L 4403 0 
L 4403 294 
L 4877 294 
L 4877 2093 
Q 4877 3014 4115 3014 
Q 3974 3014 3836 2972 
Q 3699 2931 3593 2851 
Q 3488 2771 3424 2646 
Q 3360 2522 3360 2355 
L 3360 294 
L 3834 294 
L 3834 0 
L 2362 0 
L 2362 294 
L 2835 294 
L 2835 2093 
Q 2835 3014 2080 3014 
Q 1933 3014 1798 2972 
Q 1664 2931 1555 2851 
Q 1446 2771 1382 2646 
Q 1318 2522 1318 2355 
L 1318 294 
L 1792 294 
L 1792 0 
L 320 0 
L 320 294 
z
" transform="scale(0.015625)"/>
       </defs>
       <use xlink:href="#IBMPlexSerif-36"/>
       <use xlink:href="#IBMPlexSerif-61" transform="translate(59.999985 0)"/>
       <use xlink:href="#IBMPlexSerif-6d" transform="translate(114.599976 0)"/>
      </g>
     </g>
    </g>
    <g id="xtick_2">
     <g id="text_2">
      <!-- 9am -->
      <g style="fill: #666666" transform="translate(87.931576 153.52384) scale(0.088 -0.088)">
       <defs>
        <path id="IBMPlexSerif-39" d="M 941 186 
Q 1350 262 1686 454 
Q 2022 646 2265 928 
Q 2509 1210 2656 1568 
Q 2803 1926 2842 2336 
L 2803 2342 
Q 2752 2227 2662 2112 
Q 2573 1997 2441 1907 
Q 2310 1818 2137 1760 
Q 1965 1702 1747 1702 
Q 1440 1702 1197 1801 
Q 954 1901 781 2086 
Q 608 2272 515 2528 
Q 422 2784 422 3104 
Q 422 3424 534 3689 
Q 646 3955 848 4144 
Q 1050 4333 1322 4438 
Q 1594 4544 1914 4544 
Q 2650 4544 3037 4073 
Q 3424 3603 3424 2765 
Q 3424 2157 3238 1667 
Q 3053 1178 2726 816 
Q 2400 454 1961 227 
Q 1523 0 1024 -77 
L 941 186 
z
M 1920 2042 
Q 2163 2042 2336 2122 
Q 2509 2202 2621 2339 
Q 2733 2477 2784 2665 
Q 2835 2854 2835 3078 
L 2835 3194 
Q 2835 3411 2784 3603 
Q 2733 3795 2621 3932 
Q 2509 4070 2336 4150 
Q 2163 4230 1920 4230 
Q 1677 4230 1504 4150 
Q 1331 4070 1219 3932 
Q 1107 3795 1056 3603 
Q 1005 3411 1005 3194 
L 1005 3078 
Q 1005 2854 1056 2665 
Q 1107 2477 1219 2339 
Q 1331 2202 1504 2122 
Q 1677 2042 1920 2042 
z
" transform="scale(0.015625)"/>
       </defs>
       <use xlink:href="#IBMPlexSerif-39"/>
       <use xlink:href="#IBMPlexSerif-61" transform="translate(59.999985 0)"/>
       <use xlink:href="#IBMPlexSerif-6d" transform="translate(114.599976 0)"/>
      </g>
     </g>
    </g>
    <g id="xtick_3">
     <g id="text_3">
      <!-- 12pm -->
      <g style="fill: #666666" transform="translate(112.392788 153.52384) scale(0.088 -0.088)">
       <defs>
        <path id="IBMPlexSerif-31" d="M 563 288 
L 1670 288 
L 1670 4026 
L 518 3494 
L 422 3770 
L 1728 4467 
L 2221 4467 
L 2221 288 
L 3290 288 
L 3290 0 
L 563 0 
L 563 288 
z
" transform="scale(0.015625)"/>
        <path id="IBMPlexSerif-32" d="M 390 416 
L 1843 1882 
Q 2163 2202 2336 2522 
Q 2509 2842 2509 3226 
L 2509 3366 
Q 2509 3770 2275 4003 
Q 2042 4237 1626 4237 
Q 1402 4237 1238 4192 
Q 1075 4147 979 4090 
L 979 4077 
Q 1062 4045 1136 3945 
Q 1210 3846 1210 3706 
Q 1210 3539 1101 3427 
Q 992 3315 826 3315 
Q 646 3315 544 3430 
Q 442 3546 442 3738 
Q 442 3898 541 4045 
Q 640 4192 809 4301 
Q 979 4410 1212 4477 
Q 1446 4544 1715 4544 
Q 2362 4544 2736 4221 
Q 3110 3898 3110 3322 
Q 3110 3034 3027 2797 
Q 2944 2560 2803 2352 
Q 2662 2144 2473 1958 
Q 2285 1773 2074 1587 
L 864 518 
L 864 493 
L 2976 493 
L 2976 1114 
L 3296 1114 
L 3296 0 
L 390 0 
L 390 416 
z
" transform="scale(0.015625)"/>
        <path id="IBMPlexSerif-70" d="M 256 -986 
L 730 -986 
L 730 2886 
L 256 2970 
L 256 3187 
L 1254 3379 
L 1254 2803 
L 1280 2803 
Q 1389 3040 1625 3209 
Q 1862 3379 2253 3379 
Q 2867 3379 3235 2934 
Q 3603 2490 3603 1651 
Q 3603 813 3235 368 
Q 2867 -77 2253 -77 
Q 1869 -77 1629 89 
Q 1389 256 1280 493 
L 1254 493 
L 1254 -986 
L 1856 -986 
L 1856 -1280 
L 256 -1280 
L 256 -986 
z
M 2099 288 
Q 2541 288 2787 585 
Q 3034 883 3034 1382 
L 3034 1920 
Q 3034 2419 2787 2716 
Q 2541 3014 2099 3014 
Q 1946 3014 1792 2969 
Q 1638 2925 1520 2841 
Q 1402 2758 1328 2633 
Q 1254 2509 1254 2355 
L 1254 947 
Q 1254 794 1328 669 
Q 1402 544 1520 461 
Q 1638 378 1792 333 
Q 1946 288 2099 288 
z
" transform="scale(0.015625)"/>
       </defs>
       <use xlink:href="#IBMPlexSerif-31"/>
       <use xlink:href="#IBMPlexSerif-32" transform="translate(59.999985 0)"/>
       <use xlink:href="#IBMPlexSerif-70" transform="translate(119.999969 0)"/>
       <use xlink:href="#IBMPlexSerif-6d" transform="translate(181.299957 0)"/>
      </g>
     </g>
    </g>
    <g id="xtick_4">
     <g id="text_4">
      <!-- 3pm -->
      <g style="fill: #666666" transform="translate(142.428938 153.52384) scale(0.088 -0.088)">
       <defs>
        <path id="IBMPlexSerif-33" d="M 1734 -77 
Q 1434 -77 1190 -6 
Q 947 64 774 179 
Q 602 294 509 438 
Q 416 582 416 730 
Q 416 922 525 1037 
Q 634 1152 800 1152 
Q 973 1152 1078 1040 
Q 1184 928 1184 755 
Q 1184 627 1110 524 
Q 1037 422 954 390 
L 954 378 
Q 1062 314 1238 275 
Q 1414 237 1658 237 
Q 2157 237 2441 457 
Q 2726 678 2726 1101 
L 2726 1318 
Q 2726 1722 2467 1949 
Q 2208 2176 1715 2176 
L 1197 2176 
L 1197 2490 
L 1677 2490 
Q 2144 2490 2387 2710 
Q 2630 2931 2630 3264 
L 2630 3507 
Q 2630 3872 2396 4051 
Q 2163 4230 1773 4230 
Q 1536 4230 1360 4192 
Q 1184 4154 1082 4090 
L 1082 4077 
Q 1171 4038 1241 3936 
Q 1312 3834 1312 3706 
Q 1312 3539 1203 3427 
Q 1094 3315 922 3315 
Q 749 3315 646 3430 
Q 544 3546 544 3738 
Q 544 3885 633 4029 
Q 723 4173 886 4288 
Q 1050 4403 1283 4473 
Q 1517 4544 1805 4544 
Q 2099 4544 2358 4473 
Q 2618 4403 2813 4262 
Q 3008 4122 3120 3910 
Q 3232 3699 3232 3418 
Q 3232 3200 3152 3024 
Q 3072 2848 2941 2720 
Q 2810 2592 2640 2505 
Q 2470 2419 2285 2374 
L 2285 2349 
Q 2477 2310 2662 2224 
Q 2848 2138 2995 1997 
Q 3142 1856 3235 1661 
Q 3328 1466 3328 1216 
Q 3328 915 3213 675 
Q 3098 435 2886 268 
Q 2675 102 2380 12 
Q 2086 -77 1734 -77 
z
" transform="scale(0.015625)"/>
       </defs>
       <use xlink:href="#IBMPlexSerif-33"/>
       <use xlink:href="#IBMPlexSerif-70" transform="translate(59.999985 0)"/>
       <use xlink:href="#IBMPlexSerif-6d" transform="translate(121.299973 0)"/>
      </g>
     </g>
    </g>
    <g id="xtick_5">
     <g id="text_5">
      <!-- 6pm -->
      <g style="fill: #666666" transform="translate(169.825087 153.52384) scale(0.088 -0.088)">
       <use xlink:href="#IBMPlexSerif-36"/>
       <use xlink:href="#IBMPlexSerif-70" transform="translate(59.999985 0)"/>
       <use xlink:href="#IBMPlexSerif-6d" transform="translate(121.299973 0)"/>
      </g>
     </g>
    </g>
    <g id="xtick_6">
     <g id="text_6">
      <!-- 9pm -->
      <g style="fill: #666666" transform="translate(197.221236 153.52384) scale(0.088 -0.088)">
       <use xlink:href="#IBMPlexSerif-39"/>
       <use xlink:href="#IBMPlexSerif-70" transform="translate(59.999985 0)"/>
       <use xlink:href="#IBMPlexSerif-6d" transform="translate(121.299973 0)"/>
      </g>
     </g>
    </g>
    <g id="xtick_7">
     <g id="text_7">
      <!-- 12am -->
      <g style="fill: #666666" transform="translate(222.272323 153.52384) scale(0.088 -0.088)">
       <use xlink:href="#IBMPlexSerif-31"/>
       <use xlink:href="#IBMPlexSerif-32" transform="translate(59.999985 0)"/>
       <use xlink:href="#IBMPlexSerif-61" transform="translate(119.999969 0)"/>
       <use xlink:href="#IBMPlexSerif-6d" transform="translate(174.59996 0)"/>
      </g>
     </g>
    </g>
   </g>
   <g id="matplotlib.axis_2">
    <g id="ytick_1">
     <g id="text_8">
      <!-- Bronx -->
      <g style="fill: #666666" transform="translate(25.81505 136.434753) scale(0.088 -0.088)">
       <defs>
        <path id="IBMPlexSerif-42" d="M 352 294 
L 832 294 
L 832 4173 
L 352 4173 
L 352 4467 
L 2490 4467 
Q 3053 4467 3369 4179 
Q 3686 3891 3686 3411 
Q 3686 3174 3616 2988 
Q 3546 2803 3427 2668 
Q 3309 2534 3158 2451 
Q 3008 2368 2848 2342 
L 2848 2323 
Q 3014 2310 3193 2240 
Q 3373 2170 3520 2035 
Q 3667 1901 3763 1702 
Q 3859 1504 3859 1242 
Q 3859 960 3772 729 
Q 3686 499 3529 336 
Q 3373 173 3155 86 
Q 2938 0 2682 0 
L 352 0 
L 352 294 
z
M 1382 314 
L 2483 314 
Q 2854 314 3062 531 
Q 3270 749 3270 1094 
L 3270 1376 
Q 3270 1715 3062 1932 
Q 2854 2150 2483 2150 
L 1382 2150 
L 1382 314 
z
M 1382 2464 
L 2381 2464 
Q 2726 2464 2912 2662 
Q 3098 2861 3098 3168 
L 3098 3450 
Q 3098 3757 2912 3955 
Q 2726 4154 2381 4154 
L 1382 4154 
L 1382 2464 
z
" transform="scale(0.015625)"/>
        <path id="IBMPlexSerif-72" d="M 320 294 
L 794 294 
L 794 2886 
L 320 2970 
L 320 3187 
L 1306 3379 
L 1306 2803 
L 1338 2803 
Q 1382 2906 1449 3008 
Q 1517 3110 1616 3193 
Q 1715 3277 1846 3328 
Q 1978 3379 2150 3379 
Q 2432 3379 2601 3244 
Q 2771 3110 2771 2854 
Q 2771 2662 2675 2553 
Q 2579 2445 2426 2445 
Q 2253 2445 2150 2537 
Q 2048 2630 2048 2778 
Q 2048 2906 2102 2986 
Q 2157 3066 2227 3078 
L 2227 3091 
Q 2202 3098 2163 3101 
Q 2125 3104 2067 3104 
Q 1933 3104 1798 3037 
Q 1664 2970 1558 2864 
Q 1453 2758 1385 2624 
Q 1318 2490 1318 2355 
L 1318 294 
L 1920 294 
L 1920 0 
L 320 0 
L 320 294 
z
" transform="scale(0.015625)"/>
        <path id="IBMPlexSerif-6f" d="M 1805 237 
Q 2042 237 2218 317 
Q 2394 397 2506 541 
Q 2618 685 2672 880 
Q 2726 1075 2726 1306 
L 2726 1997 
Q 2726 2227 2672 2422 
Q 2618 2618 2506 2762 
Q 2394 2906 2218 2986 
Q 2042 3066 1805 3066 
Q 1562 3066 1389 2986 
Q 1216 2906 1104 2762 
Q 992 2618 937 2422 
Q 883 2227 883 1997 
L 883 1306 
Q 883 1075 937 880 
Q 992 685 1104 541 
Q 1216 397 1389 317 
Q 1562 237 1805 237 
z
M 1805 -77 
Q 1466 -77 1184 44 
Q 902 166 704 393 
Q 506 621 397 937 
Q 288 1254 288 1651 
Q 288 2042 397 2362 
Q 506 2682 704 2909 
Q 902 3136 1184 3257 
Q 1466 3379 1805 3379 
Q 2144 3379 2425 3257 
Q 2707 3136 2905 2909 
Q 3104 2682 3213 2362 
Q 3322 2042 3322 1651 
Q 3322 1254 3213 937 
Q 3104 621 2905 393 
Q 2707 166 2425 44 
Q 2144 -77 1805 -77 
z
" transform="scale(0.015625)"/>
        <path id="IBMPlexSerif-6e" d="M 320 294 
L 794 294 
L 794 2886 
L 320 2970 
L 320 3187 
L 1306 3379 
L 1306 2803 
L 1331 2803 
Q 1370 2899 1450 3001 
Q 1530 3104 1648 3187 
Q 1766 3270 1926 3324 
Q 2086 3379 2278 3379 
Q 2874 3379 3133 3068 
Q 3392 2758 3392 2138 
L 3392 294 
L 3866 294 
L 3866 0 
L 2394 0 
L 2394 294 
L 2867 294 
L 2867 2093 
Q 2867 3014 2093 3014 
Q 1952 3014 1814 2976 
Q 1677 2938 1565 2854 
Q 1453 2771 1385 2649 
Q 1318 2528 1318 2362 
L 1318 294 
L 1792 294 
L 1792 0 
L 320 0 
L 320 294 
z
" transform="scale(0.015625)"/>
        <path id="IBMPlexSerif-78" d="M 198 294 
L 563 294 
L 1530 1613 
L 550 3008 
L 218 3008 
L 218 3302 
L 1562 3302 
L 1562 3008 
L 1184 3008 
L 1901 1958 
L 1926 1958 
L 2605 3008 
L 2208 3008 
L 2208 3302 
L 3366 3302 
L 3366 3008 
L 3002 3008 
L 2086 1709 
L 3066 294 
L 3398 294 
L 3398 0 
L 2048 0 
L 2048 294 
L 2426 294 
L 1715 1363 
L 1690 1363 
L 960 294 
L 1357 294 
L 1357 0 
L 198 0 
L 198 294 
z
" transform="scale(0.015625)"/>
       </defs>
       <use xlink:href="#IBMPlexSerif-42"/>
       <use xlink:href="#IBMPlexSerif-72" transform="translate(66.999985 0)"/>
       <use xlink:href="#IBMPlexSerif-6f" transform="translate(111.299973 0)"/>
       <use xlink:href="#IBMPlexSerif-6e" transform="translate(167.699966 0)"/>
       <use xlink:href="#IBMPlexSerif-78" transform="translate(231.59996 0)"/>
      </g>
     </g>
    </g>
    <g id="ytick_2">
     <g id="text_9">
      <!-- LaGuardia -->
      <g style="fill: #666666" transform="translate(7.680175 113.34458) scale(0.088 -0.088)">
       <defs>
        <path id="IBMPlexSerif-4c" d="M 352 294 
L 832 294 
L 832 4173 
L 352 4173 
L 352 4467 
L 1862 4467 
L 1862 4173 
L 1382 4173 
L 1382 314 
L 3021 314 
L 3021 1133 
L 3482 1133 
L 3482 0 
L 352 0 
L 352 294 
z
" transform="scale(0.015625)"/>
        <path id="IBMPlexSerif-47" d="M 2182 -77 
Q 1760 -77 1417 83 
Q 1075 243 832 540 
Q 589 838 454 1267 
Q 320 1696 320 2234 
Q 320 2790 454 3222 
Q 589 3654 838 3948 
Q 1088 4243 1443 4393 
Q 1798 4544 2240 4544 
Q 2758 4544 3040 4400 
Q 3322 4256 3398 4058 
L 3430 4058 
L 3430 4467 
L 3891 4467 
L 3891 3162 
L 3430 3162 
L 3430 3475 
Q 3430 3834 3129 4019 
Q 2829 4205 2310 4205 
Q 1958 4205 1699 4093 
Q 1440 3981 1270 3776 
Q 1101 3571 1017 3286 
Q 934 3002 934 2650 
L 934 1830 
Q 934 1485 1027 1200 
Q 1120 915 1293 716 
Q 1466 518 1709 409 
Q 1952 301 2246 301 
Q 2490 301 2701 365 
Q 2912 429 3065 550 
Q 3219 672 3305 851 
Q 3392 1030 3392 1267 
L 3392 1862 
L 2598 1862 
L 2598 2157 
L 4358 2157 
L 4358 1862 
L 3949 1862 
L 3949 0 
L 3738 0 
L 3430 621 
L 3405 621 
Q 3354 493 3251 368 
Q 3149 243 2998 144 
Q 2848 45 2643 -16 
Q 2438 -77 2182 -77 
z
" transform="scale(0.015625)"/>
        <path id="IBMPlexSerif-75" d="M 1779 -77 
Q 1184 -77 925 233 
Q 666 544 666 1171 
L 666 2886 
L 192 2970 
L 192 3187 
L 1190 3379 
L 1190 1216 
Q 1190 288 1965 288 
Q 2106 288 2243 326 
Q 2381 365 2493 448 
Q 2605 531 2672 652 
Q 2739 774 2739 941 
L 2739 2886 
L 2266 2970 
L 2266 3187 
L 3264 3379 
L 3264 416 
L 3738 333 
L 3738 115 
L 2752 -77 
L 2752 499 
L 2726 499 
Q 2688 403 2608 300 
Q 2528 198 2409 115 
Q 2291 32 2131 -22 
Q 1971 -77 1779 -77 
z
" transform="scale(0.015625)"/>
        <path id="IBMPlexSerif-64" d="M 1670 -77 
Q 1056 -77 688 368 
Q 320 813 320 1651 
Q 320 2490 688 2934 
Q 1056 3379 1670 3379 
Q 2054 3379 2294 3212 
Q 2534 3046 2643 2810 
L 2669 2810 
L 2669 4371 
L 2189 4454 
L 2189 4678 
L 3194 4864 
L 3194 416 
L 3667 333 
L 3667 115 
L 2669 -77 
L 2669 499 
L 2643 499 
Q 2534 262 2297 92 
Q 2061 -77 1670 -77 
z
M 1824 288 
Q 1978 288 2131 333 
Q 2285 378 2403 461 
Q 2522 544 2595 669 
Q 2669 794 2669 947 
L 2669 2355 
Q 2669 2509 2595 2633 
Q 2522 2758 2403 2841 
Q 2285 2925 2131 2969 
Q 1978 3014 1824 3014 
Q 1382 3014 1136 2716 
Q 890 2419 890 1920 
L 890 1382 
Q 890 883 1136 585 
Q 1382 288 1824 288 
z
" transform="scale(0.015625)"/>
        <path id="IBMPlexSerif-69" d="M 1056 4064 
Q 890 4064 803 4163 
Q 717 4262 717 4403 
L 717 4435 
Q 717 4576 803 4675 
Q 890 4774 1056 4774 
Q 1222 4774 1312 4675 
Q 1402 4576 1402 4435 
L 1402 4403 
Q 1402 4262 1312 4163 
Q 1222 4064 1056 4064 
z
M 320 294 
L 794 294 
L 794 2886 
L 320 2970 
L 320 3187 
L 1318 3379 
L 1318 294 
L 1792 294 
L 1792 0 
L 320 0 
L 320 294 
z
" transform="scale(0.015625)"/>
       </defs>
       <use xlink:href="#IBMPlexSerif-4c"/>
       <use xlink:href="#IBMPlexSerif-61" transform="translate(59.399994 0)"/>
       <use xlink:href="#IBMPlexSerif-47" transform="translate(113.999985 0)"/>
       <use xlink:href="#IBMPlexSerif-75" transform="translate(186.099976 0)"/>
       <use xlink:href="#IBMPlexSerif-61" transform="translate(247.999969 0)"/>
       <use xlink:href="#IBMPlexSerif-72" transform="translate(302.59996 0)"/>
       <use xlink:href="#IBMPlexSerif-64" transform="translate(346.899948 0)"/>
       <use xlink:href="#IBMPlexSerif-69" transform="translate(407.699936 0)"/>
       <use xlink:href="#IBMPlexSerif-61" transform="translate(439.199921 0)"/>
      </g>
     </g>
    </g>
    <g id="ytick_3">
     <g id="text_10">
      <!-- JFK -->
      <g style="fill: #666666" transform="translate(35.380925 90.254407) scale(0.088 -0.088)">
       <defs>
        <path id="IBMPlexSerif-4a" d="M 979 -77 
Q 538 -77 317 96 
Q 96 269 96 538 
Q 96 717 198 835 
Q 301 954 486 954 
Q 646 954 736 851 
Q 826 749 826 582 
Q 826 454 762 374 
Q 698 294 627 269 
L 627 250 
Q 691 230 780 217 
Q 870 205 979 205 
Q 1606 205 1606 966 
L 1606 4173 
L 998 4173 
L 998 4467 
L 2637 4467 
L 2637 4173 
L 2157 4173 
L 2157 1018 
Q 2157 467 1846 195 
Q 1536 -77 979 -77 
z
" transform="scale(0.015625)"/>
        <path id="IBMPlexSerif-46" d="M 352 294 
L 832 294 
L 832 4173 
L 352 4173 
L 352 4467 
L 3654 4467 
L 3654 3392 
L 3194 3392 
L 3194 4154 
L 1382 4154 
L 1382 2362 
L 2650 2362 
L 2650 2874 
L 3034 2874 
L 3034 1536 
L 2650 1536 
L 2650 2048 
L 1382 2048 
L 1382 294 
L 1990 294 
L 1990 0 
L 352 0 
L 352 294 
z
" transform="scale(0.015625)"/>
        <path id="IBMPlexSerif-4b" d="M 352 294 
L 832 294 
L 832 4173 
L 352 4173 
L 352 4467 
L 1862 4467 
L 1862 4173 
L 1382 4173 
L 1382 2035 
L 1408 2035 
L 2003 2707 
L 3347 4173 
L 2835 4173 
L 2835 4467 
L 4211 4467 
L 4211 4173 
L 3782 4173 
L 2400 2682 
L 3942 294 
L 4384 294 
L 4384 0 
L 2854 0 
L 2854 294 
L 3309 294 
L 2016 2285 
L 1382 1600 
L 1382 294 
L 1862 294 
L 1862 0 
L 352 0 
L 352 294 
z
" transform="scale(0.015625)"/>
       </defs>
       <use xlink:href="#IBMPlexSerif-4a"/>
       <use xlink:href="#IBMPlexSerif-46" transform="translate(45.699997 0)"/>
       <use xlink:href="#IBMPlexSerif-4b" transform="translate(108.299988 0)"/>
      </g>
     </g>
    </g>
    <g id="ytick_4">
     <g id="text_11">
      <!-- Queens -->
      <g style="fill: #666666" transform="translate(20.03455 67.164233) scale(0.088 -0.088)">
       <defs>
        <path id="IBMPlexSerif-51" d="M 3290 -1107 
Q 3104 -1107 2969 -1081 
Q 2835 -1056 2729 -1001 
Q 2624 -947 2541 -860 
Q 2458 -774 2374 -653 
L 1965 -51 
Q 1587 6 1286 188 
Q 986 371 768 662 
Q 550 954 435 1350 
Q 320 1747 320 2234 
Q 320 2771 461 3196 
Q 602 3622 861 3923 
Q 1120 4224 1485 4384 
Q 1850 4544 2291 4544 
Q 2733 4544 3097 4384 
Q 3462 4224 3721 3923 
Q 3981 3622 4121 3196 
Q 4262 2771 4262 2234 
Q 4262 1741 4140 1337 
Q 4019 934 3798 640 
Q 3578 346 3264 166 
Q 2950 -13 2560 -58 
L 2848 -454 
Q 2918 -557 2979 -624 
Q 3040 -691 3107 -732 
Q 3174 -774 3251 -793 
Q 3328 -813 3437 -813 
L 3629 -813 
L 3629 -1107 
L 3290 -1107 
z
M 2291 262 
Q 2618 262 2870 380 
Q 3123 499 3296 713 
Q 3469 928 3558 1222 
Q 3648 1517 3648 1869 
L 3648 2598 
Q 3648 2950 3558 3244 
Q 3469 3539 3296 3753 
Q 3123 3968 2870 4086 
Q 2618 4205 2291 4205 
Q 1965 4205 1712 4086 
Q 1459 3968 1286 3753 
Q 1114 3539 1024 3244 
Q 934 2950 934 2598 
L 934 1869 
Q 934 1517 1024 1222 
Q 1114 928 1286 713 
Q 1459 499 1712 380 
Q 1965 262 2291 262 
z
" transform="scale(0.015625)"/>
        <path id="IBMPlexSerif-65" d="M 1786 -77 
Q 1434 -77 1155 48 
Q 877 173 685 397 
Q 493 621 390 941 
Q 288 1261 288 1651 
Q 288 2035 400 2352 
Q 512 2669 707 2899 
Q 902 3130 1171 3254 
Q 1440 3379 1760 3379 
Q 2086 3379 2342 3264 
Q 2598 3149 2774 2941 
Q 2950 2733 3046 2445 
Q 3142 2157 3142 1818 
L 3142 1670 
L 870 1670 
L 870 1504 
Q 870 960 1142 646 
Q 1414 333 1869 333 
Q 2266 333 2499 496 
Q 2733 659 2867 922 
L 3078 787 
Q 3014 621 2902 464 
Q 2790 307 2630 188 
Q 2470 70 2259 -3 
Q 2048 -77 1786 -77 
z
M 870 1965 
L 2592 1965 
L 2592 2029 
Q 2592 2253 2544 2445 
Q 2496 2637 2393 2777 
Q 2291 2918 2134 2998 
Q 1978 3078 1760 3078 
Q 1542 3078 1376 3001 
Q 1210 2925 1098 2784 
Q 986 2643 928 2454 
Q 870 2266 870 2042 
L 870 1965 
z
" transform="scale(0.015625)"/>
        <path id="IBMPlexSerif-73" d="M 1613 -77 
Q 1312 -77 1088 48 
Q 864 173 794 326 
L 768 326 
L 768 0 
L 384 0 
L 384 992 
L 768 992 
L 768 858 
Q 768 582 941 409 
Q 1114 237 1510 237 
Q 1875 237 2076 368 
Q 2278 499 2278 787 
Q 2278 1235 1734 1357 
L 1350 1440 
Q 877 1542 637 1785 
Q 397 2029 397 2451 
Q 397 2886 697 3132 
Q 998 3379 1504 3379 
Q 1811 3379 2006 3283 
Q 2202 3187 2266 3034 
L 2291 3034 
L 2291 3302 
L 2675 3302 
L 2675 2310 
L 2291 2310 
L 2291 2554 
Q 2291 3066 1574 3066 
Q 1248 3066 1065 2941 
Q 883 2816 883 2547 
Q 883 2323 1030 2172 
Q 1178 2022 1434 1965 
L 1792 1888 
Q 2285 1786 2531 1549 
Q 2778 1312 2778 890 
Q 2778 685 2698 509 
Q 2618 333 2467 201 
Q 2317 70 2102 -3 
Q 1888 -77 1613 -77 
z
" transform="scale(0.015625)"/>
       </defs>
       <use xlink:href="#IBMPlexSerif-51"/>
       <use xlink:href="#IBMPlexSerif-75" transform="translate(71.599991 0)"/>
       <use xlink:href="#IBMPlexSerif-65" transform="translate(133.499985 0)"/>
       <use xlink:href="#IBMPlexSerif-65" transform="translate(187.099976 0)"/>
       <use xlink:href="#IBMPlexSerif-6e" transform="translate(240.699966 0)"/>
       <use xlink:href="#IBMPlexSerif-73" transform="translate(304.59996 0)"/>
      </g>
     </g>
    </g>
    <g id="ytick_5">
     <g id="text_12">
      <!-- Brooklyn -->
      <g style="fill: #666666" transform="translate(13.30805 44.07406) scale(0.088 -0.088)">
       <defs>
        <path id="IBMPlexSerif-6b" d="M 224 294 
L 698 294 
L 698 4371 
L 224 4454 
L 224 4678 
L 1222 4864 
L 1222 1517 
L 1254 1517 
L 1792 2118 
L 2598 3008 
L 2163 3008 
L 2163 3302 
L 3533 3302 
L 3533 3008 
L 3066 3008 
L 2138 2042 
L 3296 294 
L 3661 294 
L 3661 0 
L 2298 0 
L 2298 294 
L 2707 294 
L 1779 1690 
L 1222 1107 
L 1222 294 
L 1696 294 
L 1696 0 
L 224 0 
L 224 294 
z
" transform="scale(0.015625)"/>
        <path id="IBMPlexSerif-6c" d="M 224 294 
L 698 294 
L 698 4371 
L 224 4454 
L 224 4678 
L 1222 4864 
L 1222 294 
L 1696 294 
L 1696 0 
L 224 0 
L 224 294 
z
" transform="scale(0.015625)"/>
        <path id="IBMPlexSerif-79" d="M 787 -1357 
Q 461 -1357 313 -1219 
Q 166 -1082 166 -858 
Q 166 -691 256 -588 
Q 346 -486 512 -486 
Q 659 -486 739 -572 
Q 819 -659 819 -806 
Q 819 -915 764 -982 
Q 710 -1050 646 -1069 
L 646 -1088 
Q 717 -1114 813 -1114 
Q 979 -1114 1139 -970 
Q 1299 -826 1427 -499 
L 1562 -134 
L 346 3008 
L 13 3008 
L 13 3302 
L 1382 3302 
L 1382 3008 
L 922 3008 
L 1811 589 
L 1837 589 
L 2701 3008 
L 2240 3008 
L 2240 3302 
L 3405 3302 
L 3405 3008 
L 3072 3008 
L 1702 -550 
Q 1568 -902 1341 -1129 
Q 1114 -1357 787 -1357 
z
" transform="scale(0.015625)"/>
       </defs>
       <use xlink:href="#IBMPlexSerif-42"/>
       <use xlink:href="#IBMPlexSerif-72" transform="translate(66.999985 0)"/>
       <use xlink:href="#IBMPlexSerif-6f" transform="translate(111.299973 0)"/>
       <use xlink:href="#IBMPlexSerif-6f" transform="translate(167.699966 0)"/>
       <use xlink:href="#IBMPlexSerif-6b" transform="translate(224.09996 0)"/>
       <use xlink:href="#IBMPlexSerif-6c" transform="translate(282.499954 0)"/>
       <use xlink:href="#IBMPlexSerif-79" transform="translate(312.499939 0)"/>
       <use xlink:href="#IBMPlexSerif-6e" transform="translate(365.899933 0)"/>
      </g>
     </g>
    </g>
    <g id="ytick_6">
     <g id="text_13">
      <!-- Manhattan -->
      <g style="fill: #666666" transform="translate(6.0948 20.983887) scale(0.088 -0.088)">
       <defs>
        <path id="IBMPlexSerif-4d" d="M 352 294 
L 832 294 
L 832 4173 
L 352 4173 
L 352 4467 
L 1478 4467 
L 2784 1702 
L 2803 1702 
L 4173 4467 
L 5229 4467 
L 5229 4173 
L 4749 4173 
L 4749 294 
L 5229 294 
L 5229 0 
L 3718 0 
L 3718 294 
L 4198 294 
L 4198 3821 
L 4173 3821 
L 3891 3200 
L 2662 749 
L 1568 3040 
L 1210 3821 
L 1184 3821 
L 1184 294 
L 1664 294 
L 1664 0 
L 352 0 
L 352 294 
z
" transform="scale(0.015625)"/>
        <path id="IBMPlexSerif-68" d="M 224 294 
L 698 294 
L 698 4371 
L 224 4454 
L 224 4678 
L 1222 4864 
L 1222 2810 
L 1248 2810 
Q 1286 2906 1363 3008 
Q 1440 3110 1558 3193 
Q 1677 3277 1833 3328 
Q 1990 3379 2189 3379 
Q 2784 3379 3040 3068 
Q 3296 2758 3296 2138 
L 3296 294 
L 3770 294 
L 3770 0 
L 2298 0 
L 2298 294 
L 2771 294 
L 2771 2093 
Q 2771 2560 2585 2787 
Q 2400 3014 1997 3014 
Q 1856 3014 1718 2976 
Q 1581 2938 1469 2854 
Q 1357 2771 1289 2649 
Q 1222 2528 1222 2362 
L 1222 294 
L 1696 294 
L 1696 0 
L 224 0 
L 224 294 
z
" transform="scale(0.015625)"/>
        <path id="IBMPlexSerif-74" d="M 1293 -38 
Q 954 -38 826 99 
Q 698 237 698 570 
L 698 2989 
L 275 2989 
L 275 3302 
L 333 3302 
Q 467 3302 547 3321 
Q 627 3341 675 3376 
Q 723 3411 745 3465 
Q 768 3520 787 3590 
L 934 4160 
L 1222 4160 
L 1222 3302 
L 2074 3302 
L 2074 2989 
L 1222 2989 
L 1222 314 
L 2074 314 
L 2074 102 
Q 2016 70 1929 44 
Q 1843 19 1737 0 
Q 1632 -19 1517 -28 
Q 1402 -38 1293 -38 
z
" transform="scale(0.015625)"/>
       </defs>
       <use xlink:href="#IBMPlexSerif-4d"/>
       <use xlink:href="#IBMPlexSerif-61" transform="translate(87.199982 0)"/>
       <use xlink:href="#IBMPlexSerif-6e" transform="translate(141.799973 0)"/>
       <use xlink:href="#IBMPlexSerif-68" transform="translate(205.699966 0)"/>
       <use xlink:href="#IBMPlexSerif-61" transform="translate(268.09996 0)"/>
       <use xlink:href="#IBMPlexSerif-74" transform="translate(322.699951 0)"/>
       <use xlink:href="#IBMPlexSerif-74" transform="translate(357.999939 0)"/>
       <use xlink:href="#IBMPlexSerif-61" transform="translate(393.299927 0)"/>
       <use xlink:href="#IBMPlexSerif-6e" transform="translate(447.899918 0)"/>
      </g>
     </g>
    </g>
   </g>
   <g id="PolyCollection_1">
    <path d="M 220.449436 144.63584 
L 220.449436 121.545667 
L 247.845585 121.545667 
L 247.845585 144.63584 
z
" clip-path="url(#p20b76706ae)" style="fill: #f0f0f0; stroke: #ffffff; stroke-width: 2.658681"/>
    <path d="M 110.864839 144.63584 
L 110.864839 121.545667 
L 138.260988 121.545667 
L 138.260988 144.63584 
z
" clip-path="url(#p20b76706ae)" style="fill: #d5d5d5; stroke: #ffffff; stroke-width: 2.658681"/>
    <path d="M 138.260988 144.63584 
L 138.260988 121.545667 
L 165.657137 121.545667 
L 165.657137 144.63584 
z
" clip-path="url(#p20b76706ae)" style="fill: #dadada; stroke: #ffffff; stroke-width: 2.658681"/>
    <path d="M 56.07254 144.63584 
L 56.07254 121.545667 
L 83.468689 121.545667 
L 83.468689 144.63584 
z
" clip-path="url(#p20b76706ae)" style="fill: #e6e6e6; stroke: #ffffff; stroke-width: 2.658681"/>
    <path d="M 165.657137 144.63584 
L 165.657137 121.545667 
L 193.053286 121.545667 
L 193.053286 144.63584 
z
" clip-path="url(#p20b76706ae)" style="fill: #bbbbbb; stroke: #ffffff; stroke-width: 2.658681"/>
    <path d="M 83.468689 144.63584 
L 83.468689 121.545667 
L 110.864839 121.545667 
L 110.864839 144.63584 
z
" clip-path="url(#p20b76706ae)" style="fill: #d4d4d4; stroke: #ffffff; stroke-width: 2.658681"/>
    <path d="M 193.053286 144.63584 
L 193.053286 121.545667 
L 220.449436 121.545667 
L 220.449436 144.63584 
z
" clip-path="url(#p20b76706ae)" style="fill: #d8d8d8; stroke: #ffffff; stroke-width: 2.658681"/>
    <path d="M 220.449436 52.275147 
L 220.449436 29.184973 
L 247.845585 29.184973 
L 247.845585 52.275147 
z
" clip-path="url(#p20b76706ae)" style="fill: #dfdfdf; stroke: #ffffff; stroke-width: 2.658681"/>
    <path d="M 110.864839 52.275147 
L 110.864839 29.184973 
L 138.260988 29.184973 
L 138.260988 52.275147 
z
" clip-path="url(#p20b76706ae)" style="fill: #9e9e9e; stroke: #ffffff; stroke-width: 2.658681"/>
    <path d="M 138.260988 52.275147 
L 138.260988 29.184973 
L 165.657137 29.184973 
L 165.657137 52.275147 
z
" clip-path="url(#p20b76706ae)" style="fill: #b2b2b2; stroke: #ffffff; stroke-width: 2.658681"/>
    <path d="M 56.07254 52.275147 
L 56.07254 29.184973 
L 83.468689 29.184973 
L 83.468689 52.275147 
z
" clip-path="url(#p20b76706ae)" style="fill: #dbdbdb; stroke: #ffffff; stroke-width: 2.658681"/>
    <path d="M 165.657137 52.275147 
L 165.657137 29.184973 
L 193.053286 29.184973 
L 193.053286 52.275147 
z
" clip-path="url(#p20b76706ae)" style="fill: #6c6c6c; stroke: #ffffff; stroke-width: 2.658681"/>
    <path d="M 83.468689 52.275147 
L 83.468689 29.184973 
L 110.864839 29.184973 
L 110.864839 52.275147 
z
" clip-path="url(#p20b76706ae)" style="fill: #8d8d8d; stroke: #ffffff; stroke-width: 2.658681"/>
    <path d="M 193.053286 52.275147 
L 193.053286 29.184973 
L 220.449436 29.184973 
L 220.449436 52.275147 
z
" clip-path="url(#p20b76706ae)" style="fill: #a8a8a8; stroke: #ffffff; stroke-width: 2.658681"/>
    <path d="M 220.449436 98.455493 
L 220.449436 75.36532 
L 247.845585 75.36532 
L 247.845585 98.455493 
z
" clip-path="url(#p20b76706ae)" style="fill: #c4c4c4; stroke: #ffffff; stroke-width: 2.658681"/>
    <path d="M 110.864839 98.455493 
L 110.864839 75.36532 
L 138.260988 75.36532 
L 138.260988 98.455493 
z
" clip-path="url(#p20b76706ae)" style="fill: #b2b2b2; stroke: #ffffff; stroke-width: 2.658681"/>
    <path d="M 138.260988 98.455493 
L 138.260988 75.36532 
L 165.657137 75.36532 
L 165.657137 98.455493 
z
" clip-path="url(#p20b76706ae)" style="fill: #979797; stroke: #ffffff; stroke-width: 2.658681"/>
    <path d="M 56.07254 98.455493 
L 56.07254 75.36532 
L 83.468689 75.36532 
L 83.468689 98.455493 
z
" clip-path="url(#p20b76706ae)" style="fill: #c6c6c6; stroke: #ffffff; stroke-width: 2.658681"/>
    <path d="M 165.657137 98.455493 
L 165.657137 75.36532 
L 193.053286 75.36532 
L 193.053286 98.455493 
z
" clip-path="url(#p20b76706ae)" style="fill: #626262; stroke: #ffffff; stroke-width: 2.658681"/>
    <path d="M 83.468689 98.455493 
L 83.468689 75.36532 
L 110.864839 75.36532 
L 110.864839 98.455493 
z
" clip-path="url(#p20b76706ae)" style="fill: #747474; stroke: #ffffff; stroke-width: 2.658681"/>
    <path d="M 193.053286 98.455493 
L 193.053286 75.36532 
L 220.449436 75.36532 
L 220.449436 98.455493 
z
" clip-path="url(#p20b76706ae)" style="fill: #7e7e7e; stroke: #ffffff; stroke-width: 2.658681"/>
    <path d="M 220.449436 121.545667 
L 220.449436 98.455493 
L 247.845585 98.455493 
L 247.845585 121.545667 
z
" clip-path="url(#p20b76706ae)" style="fill: #d2d2d2; stroke: #ffffff; stroke-width: 2.658681"/>
    <path d="M 110.864839 121.545667 
L 110.864839 98.455493 
L 138.260988 98.455493 
L 138.260988 121.545667 
z
" clip-path="url(#p20b76706ae)" style="fill: #c1c1c1; stroke: #ffffff; stroke-width: 2.658681"/>
    <path d="M 138.260988 121.545667 
L 138.260988 98.455493 
L 165.657137 98.455493 
L 165.657137 121.545667 
z
" clip-path="url(#p20b76706ae)" style="fill: #aeaeae; stroke: #ffffff; stroke-width: 2.658681"/>
    <path d="M 56.07254 121.545667 
L 56.07254 98.455493 
L 83.468689 98.455493 
L 83.468689 121.545667 
z
" clip-path="url(#p20b76706ae)" style="fill: #d8d8d8; stroke: #ffffff; stroke-width: 2.658681"/>
    <path d="M 165.657137 121.545667 
L 165.657137 98.455493 
L 193.053286 98.455493 
L 193.053286 121.545667 
z
" clip-path="url(#p20b76706ae)" style="fill: #727272; stroke: #ffffff; stroke-width: 2.658681"/>
    <path d="M 83.468689 121.545667 
L 83.468689 98.455493 
L 110.864839 98.455493 
L 110.864839 121.545667 
z
" clip-path="url(#p20b76706ae)" style="fill: #868686; stroke: #ffffff; stroke-width: 2.658681"/>
    <path d="M 193.053286 121.545667 
L 193.053286 98.455493 
L 220.449436 98.455493 
L 220.449436 121.545667 
z
" clip-path="url(#p20b76706ae)" style="fill: #a7a7a7; stroke: #ffffff; stroke-width: 2.658681"/>
    <path d="M 220.449436 29.184973 
L 220.449436 6.0948 
L 247.845585 6.0948 
L 247.845585 29.184973 
z
" clip-path="url(#p20b76706ae)" style="fill: #d2d2d2; stroke: #ffffff; stroke-width: 2.658681"/>
    <path d="M 110.864839 29.184973 
L 110.864839 6.0948 
L 138.260988 6.0948 
L 138.260988 29.184973 
z
" clip-path="url(#p20b76706ae)" style="fill: #6f6f6f; stroke: #ffffff; stroke-width: 2.658681"/>
    <path d="M 138.260988 29.184973 
L 138.260988 6.0948 
L 165.657137 6.0948 
L 165.657137 29.184973 
z
" clip-path="url(#p20b76706ae)" style="fill: #7f7f7f; stroke: #ffffff; stroke-width: 2.658681"/>
    <path d="M 56.07254 29.184973 
L 56.07254 6.0948 
L 83.468689 6.0948 
L 83.468689 29.184973 
z
" clip-path="url(#p20b76706ae)" style="fill: #a7a7a7; stroke: #ffffff; stroke-width: 2.658681"/>
    <path d="M 165.657137 29.184973 
L 165.657137 6.0948 
L 193.053286 6.0948 
L 193.053286 29.184973 
z
" clip-path="url(#p20b76706ae)" style="fill: #484848; stroke: #ffffff; stroke-width: 2.658681"/>
    <path d="M 83.468689 29.184973 
L 83.468689 6.0948 
L 110.864839 6.0948 
L 110.864839 29.184973 
z
" clip-path="url(#p20b76706ae)" style="fill: #333333; stroke: #ffffff; stroke-width: 2.658681"/>
    <path d="M 193.053286 29.184973 
L 193.053286 6.0948 
L 220.449436 6.0948 
L 220.449436 29.184973 
z
" clip-path="url(#p20b76706ae)" style="fill: #969696; stroke: #ffffff; stroke-width: 2.658681"/>
    <path d="M 220.449436 75.36532 
L 220.449436 52.275147 
L 247.845585 52.275147 
L 247.845585 75.36532 
z
" clip-path="url(#p20b76706ae)" style="fill: #e6e6e6; stroke: #ffffff; stroke-width: 2.658681"/>
    <path d="M 110.864839 75.36532 
L 110.864839 52.275147 
L 138.260988 52.275147 
L 138.260988 75.36532 
z
" clip-path="url(#p20b76706ae)" style="fill: #c9c9c9; stroke: #ffffff; stroke-width: 2.658681"/>
    <path d="M 138.260988 75.36532 
L 138.260988 52.275147 
L 165.657137 52.275147 
L 165.657137 75.36532 
z
" clip-path="url(#p20b76706ae)" style="fill: #bebebe; stroke: #ffffff; stroke-width: 2.658681"/>
    <path d="M 56.07254 75.36532 
L 56.07254 52.275147 
L 83.468689 52.275147 
L 83.468689 75.36532 
z
" clip-path="url(#p20b76706ae)" style="fill: #ececec; stroke: #ffffff; stroke-width: 2.658681"/>
    <path d="M 165.657137 75.36532 
L 165.657137 52.275147 
L 193.053286 52.275147 
L 193.053286 75.36532 
z
" clip-path="url(#p20b76706ae)" style="fill: #a1a1a1; stroke: #ffffff; stroke-width: 2.658681"/>
    <path d="M 83.468689 75.36532 
L 83.468689 52.275147 
L 110.864839 52.275147 
L 110.864839 75.36532 
z
" clip-path="url(#p20b76706ae)" style="fill: #bebebe; stroke: #ffffff; stroke-width: 2.658681"/>
    <path d="M 193.053286 75.36532 
L 193.053286 52.275147 
L 220.449436 52.275147 
L 220.449436 75.36532 
z
" clip-path="url(#p20b76706ae)" style="fill: #d8d8d8; stroke: #ffffff; stroke-width: 2.658681"/>
   </g>
   <g id="text_14">
    <g clip-path="url(#p20b76706ae)">
     <!-- 6,170 -->
     <g style="fill: #333333" transform="translate(62.613583 134.470441) scale(0.05 -0.05)">
      <defs>
       <path id="DejaVuSans-36" d="M 2113 2584 
Q 1688 2584 1439 2293 
Q 1191 2003 1191 1497 
Q 1191 994 1439 701 
Q 1688 409 2113 409 
Q 2538 409 2786 701 
Q 3034 994 3034 1497 
Q 3034 2003 2786 2293 
Q 2538 2584 2113 2584 
z
M 3366 4563 
L 3366 3988 
Q 3128 4100 2886 4159 
Q 2644 4219 2406 4219 
Q 1781 4219 1451 3797 
Q 1122 3375 1075 2522 
Q 1259 2794 1537 2939 
Q 1816 3084 2150 3084 
Q 2853 3084 3261 2657 
Q 3669 2231 3669 1497 
Q 3669 778 3244 343 
Q 2819 -91 2113 -91 
Q 1303 -91 875 529 
Q 447 1150 447 2328 
Q 447 3434 972 4092 
Q 1497 4750 2381 4750 
Q 2619 4750 2861 4703 
Q 3103 4656 3366 4563 
z
" transform="scale(0.015625)"/>
       <path id="DejaVuSans-2c" d="M 750 794 
L 1409 794 
L 1409 256 
L 897 -744 
L 494 -744 
L 750 256 
L 750 794 
z
" transform="scale(0.015625)"/>
       <path id="DejaVuSans-31" d="M 794 531 
L 1825 531 
L 1825 4091 
L 703 3866 
L 703 4441 
L 1819 4666 
L 2450 4666 
L 2450 531 
L 3481 531 
L 3481 0 
L 794 0 
L 794 531 
z
" transform="scale(0.015625)"/>
       <path id="DejaVuSans-37" d="M 525 4666 
L 3525 4666 
L 3525 4397 
L 1831 0 
L 1172 0 
L 2766 4134 
L 525 4134 
L 525 4666 
z
" transform="scale(0.015625)"/>
       <path id="DejaVuSans-30" d="M 2034 4250 
Q 1547 4250 1301 3770 
Q 1056 3291 1056 2328 
Q 1056 1369 1301 889 
Q 1547 409 2034 409 
Q 2525 409 2770 889 
Q 3016 1369 3016 2328 
Q 3016 3291 2770 3770 
Q 2525 4250 2034 4250 
z
M 2034 4750 
Q 2819 4750 3233 4129 
Q 3647 3509 3647 2328 
Q 3647 1150 3233 529 
Q 2819 -91 2034 -91 
Q 1250 -91 836 529 
Q 422 1150 422 2328 
Q 422 3509 836 4129 
Q 1250 4750 2034 4750 
z
" transform="scale(0.015625)"/>
      </defs>
      <use xlink:href="#DejaVuSans-36"/>
      <use xlink:href="#DejaVuSans-2c" transform="translate(63.623047 0)"/>
      <use xlink:href="#DejaVuSans-31" transform="translate(95.410156 0)"/>
      <use xlink:href="#DejaVuSans-37" transform="translate(159.033203 0)"/>
      <use xlink:href="#DejaVuSans-30" transform="translate(222.65625 0)"/>
     </g>
    </g>
   </g>
   <g id="text_15">
    <g clip-path="url(#p20b76706ae)">
     <!-- 9,912 -->
     <g style="fill: #333333" transform="translate(62.613583 111.380267) scale(0.05 -0.05)">
      <defs>
       <path id="DejaVuSans-39" d="M 703 97 
L 703 672 
Q 941 559 1184 500 
Q 1428 441 1663 441 
Q 2288 441 2617 861 
Q 2947 1281 2994 2138 
Q 2813 1869 2534 1725 
Q 2256 1581 1919 1581 
Q 1219 1581 811 2004 
Q 403 2428 403 3163 
Q 403 3881 828 4315 
Q 1253 4750 1959 4750 
Q 2769 4750 3195 4129 
Q 3622 3509 3622 2328 
Q 3622 1225 3098 567 
Q 2575 -91 1691 -91 
Q 1453 -91 1209 -44 
Q 966 3 703 97 
z
M 1959 2075 
Q 2384 2075 2632 2365 
Q 2881 2656 2881 3163 
Q 2881 3666 2632 3958 
Q 2384 4250 1959 4250 
Q 1534 4250 1286 3958 
Q 1038 3666 1038 3163 
Q 1038 2656 1286 2365 
Q 1534 2075 1959 2075 
z
" transform="scale(0.015625)"/>
       <path id="DejaVuSans-32" d="M 1228 531 
L 3431 531 
L 3431 0 
L 469 0 
L 469 531 
Q 828 903 1448 1529 
Q 2069 2156 2228 2338 
Q 2531 2678 2651 2914 
Q 2772 3150 2772 3378 
Q 2772 3750 2511 3984 
Q 2250 4219 1831 4219 
Q 1534 4219 1204 4116 
Q 875 4013 500 3803 
L 500 4441 
Q 881 4594 1212 4672 
Q 1544 4750 1819 4750 
Q 2544 4750 2975 4387 
Q 3406 4025 3406 3419 
Q 3406 3131 3298 2873 
Q 3191 2616 2906 2266 
Q 2828 2175 2409 1742 
Q 1991 1309 1228 531 
z
" transform="scale(0.015625)"/>
      </defs>
      <use xlink:href="#DejaVuSans-39"/>
      <use xlink:href="#DejaVuSans-2c" transform="translate(63.623047 0)"/>
      <use xlink:href="#DejaVuSans-39" transform="translate(95.410156 0)"/>
      <use xlink:href="#DejaVuSans-31" transform="translate(159.033203 0)"/>
      <use xlink:href="#DejaVuSans-32" transform="translate(222.65625 0)"/>
     </g>
    </g>
   </g>
   <g id="text_16">
    <g clip-path="url(#p20b76706ae)">
     <!-- 14,212 -->
     <g style="fill: #333333" transform="translate(61.022958 88.290094) scale(0.05 -0.05)">
      <defs>
       <path id="DejaVuSans-34" d="M 2419 4116 
L 825 1625 
L 2419 1625 
L 2419 4116 
z
M 2253 4666 
L 3047 4666 
L 3047 1625 
L 3713 1625 
L 3713 1100 
L 3047 1100 
L 3047 0 
L 2419 0 
L 2419 1100 
L 313 1100 
L 313 1709 
L 2253 4666 
z
" transform="scale(0.015625)"/>
      </defs>
      <use xlink:href="#DejaVuSans-31"/>
      <use xlink:href="#DejaVuSans-34" transform="translate(63.623047 0)"/>
      <use xlink:href="#DejaVuSans-2c" transform="translate(127.246094 0)"/>
      <use xlink:href="#DejaVuSans-32" transform="translate(159.033203 0)"/>
      <use xlink:href="#DejaVuSans-31" transform="translate(222.65625 0)"/>
      <use xlink:href="#DejaVuSans-32" transform="translate(286.279297 0)"/>
     </g>
    </g>
   </g>
   <g id="text_17">
    <g clip-path="url(#p20b76706ae)">
     <!-- 4,999 -->
     <g style="fill: #333333" transform="translate(62.613583 65.199921) scale(0.05 -0.05)">
      <use xlink:href="#DejaVuSans-34"/>
      <use xlink:href="#DejaVuSans-2c" transform="translate(63.623047 0)"/>
      <use xlink:href="#DejaVuSans-39" transform="translate(95.410156 0)"/>
      <use xlink:href="#DejaVuSans-39" transform="translate(159.033203 0)"/>
      <use xlink:href="#DejaVuSans-39" transform="translate(222.65625 0)"/>
     </g>
    </g>
   </g>
   <g id="text_18">
    <g clip-path="url(#p20b76706ae)">
     <!-- 8,900 -->
     <g style="fill: #333333" transform="translate(62.613583 42.109747) scale(0.05 -0.05)">
      <defs>
       <path id="DejaVuSans-38" d="M 2034 2216 
Q 1584 2216 1326 1975 
Q 1069 1734 1069 1313 
Q 1069 891 1326 650 
Q 1584 409 2034 409 
Q 2484 409 2743 651 
Q 3003 894 3003 1313 
Q 3003 1734 2745 1975 
Q 2488 2216 2034 2216 
z
M 1403 2484 
Q 997 2584 770 2862 
Q 544 3141 544 3541 
Q 544 4100 942 4425 
Q 1341 4750 2034 4750 
Q 2731 4750 3128 4425 
Q 3525 4100 3525 3541 
Q 3525 3141 3298 2862 
Q 3072 2584 2669 2484 
Q 3125 2378 3379 2068 
Q 3634 1759 3634 1313 
Q 3634 634 3220 271 
Q 2806 -91 2034 -91 
Q 1263 -91 848 271 
Q 434 634 434 1313 
Q 434 1759 690 2068 
Q 947 2378 1403 2484 
z
M 1172 3481 
Q 1172 3119 1398 2916 
Q 1625 2713 2034 2713 
Q 2441 2713 2670 2916 
Q 2900 3119 2900 3481 
Q 2900 3844 2670 4047 
Q 2441 4250 2034 4250 
Q 1625 4250 1398 4047 
Q 1172 3844 1172 3481 
z
" transform="scale(0.015625)"/>
      </defs>
      <use xlink:href="#DejaVuSans-38"/>
      <use xlink:href="#DejaVuSans-2c" transform="translate(63.623047 0)"/>
      <use xlink:href="#DejaVuSans-39" transform="translate(95.410156 0)"/>
      <use xlink:href="#DejaVuSans-30" transform="translate(159.033203 0)"/>
      <use xlink:href="#DejaVuSans-30" transform="translate(222.65625 0)"/>
     </g>
    </g>
   </g>
   <g id="text_19">
    <g clip-path="url(#p20b76706ae)">
     <!-- 21,779 -->
     <g style="fill: #333333" transform="translate(61.022958 19.019574) scale(0.05 -0.05)">
      <use xlink:href="#DejaVuSans-32"/>
      <use xlink:href="#DejaVuSans-31" transform="translate(63.623047 0)"/>
      <use xlink:href="#DejaVuSans-2c" transform="translate(127.246094 0)"/>
      <use xlink:href="#DejaVuSans-37" transform="translate(159.033203 0)"/>
      <use xlink:href="#DejaVuSans-37" transform="translate(222.65625 0)"/>
      <use xlink:href="#DejaVuSans-39" transform="translate(286.279297 0)"/>
     </g>
    </g>
   </g>
   <g id="text_20">
    <g clip-path="url(#p20b76706ae)">
     <!-- 10,801 -->
     <g style="fill: #333333" transform="translate(88.419108 134.470441) scale(0.05 -0.05)">
      <use xlink:href="#DejaVuSans-31"/>
      <use xlink:href="#DejaVuSans-30" transform="translate(63.623047 0)"/>
      <use xlink:href="#DejaVuSans-2c" transform="translate(127.246094 0)"/>
      <use xlink:href="#DejaVuSans-38" transform="translate(159.033203 0)"/>
      <use xlink:href="#DejaVuSans-30" transform="translate(222.65625 0)"/>
      <use xlink:href="#DejaVuSans-31" transform="translate(286.279297 0)"/>
     </g>
    </g>
   </g>
   <g id="text_21">
    <g clip-path="url(#p20b76706ae)">
     <!-- 16,284 -->
     <g style="fill: #333333" transform="translate(88.419108 65.199921) scale(0.05 -0.05)">
      <use xlink:href="#DejaVuSans-31"/>
      <use xlink:href="#DejaVuSans-36" transform="translate(63.623047 0)"/>
      <use xlink:href="#DejaVuSans-2c" transform="translate(127.246094 0)"/>
      <use xlink:href="#DejaVuSans-32" transform="translate(159.033203 0)"/>
      <use xlink:href="#DejaVuSans-38" transform="translate(222.65625 0)"/>
      <use xlink:href="#DejaVuSans-34" transform="translate(286.279297 0)"/>
     </g>
    </g>
   </g>
   <g id="text_22">
    <g clip-path="url(#p20b76706ae)">
     <!-- 28,222 -->
     <g style="fill: #333333" transform="translate(88.419108 42.109747) scale(0.05 -0.05)">
      <use xlink:href="#DejaVuSans-32"/>
      <use xlink:href="#DejaVuSans-38" transform="translate(63.623047 0)"/>
      <use xlink:href="#DejaVuSans-2c" transform="translate(127.246094 0)"/>
      <use xlink:href="#DejaVuSans-32" transform="translate(159.033203 0)"/>
      <use xlink:href="#DejaVuSans-32" transform="translate(222.65625 0)"/>
      <use xlink:href="#DejaVuSans-32" transform="translate(286.279297 0)"/>
     </g>
    </g>
   </g>
   <g id="text_23">
    <g clip-path="url(#p20b76706ae)">
     <!-- 10,488 -->
     <g style="fill: #333333" transform="translate(115.815257 134.470441) scale(0.05 -0.05)">
      <use xlink:href="#DejaVuSans-31"/>
      <use xlink:href="#DejaVuSans-30" transform="translate(63.623047 0)"/>
      <use xlink:href="#DejaVuSans-2c" transform="translate(127.246094 0)"/>
      <use xlink:href="#DejaVuSans-34" transform="translate(159.033203 0)"/>
      <use xlink:href="#DejaVuSans-38" transform="translate(222.65625 0)"/>
      <use xlink:href="#DejaVuSans-38" transform="translate(286.279297 0)"/>
     </g>
    </g>
   </g>
   <g id="text_24">
    <g clip-path="url(#p20b76706ae)">
     <!-- 15,330 -->
     <g style="fill: #333333" transform="translate(115.815257 111.380267) scale(0.05 -0.05)">
      <defs>
       <path id="DejaVuSans-35" d="M 691 4666 
L 3169 4666 
L 3169 4134 
L 1269 4134 
L 1269 2991 
Q 1406 3038 1543 3061 
Q 1681 3084 1819 3084 
Q 2600 3084 3056 2656 
Q 3513 2228 3513 1497 
Q 3513 744 3044 326 
Q 2575 -91 1722 -91 
Q 1428 -91 1123 -41 
Q 819 9 494 109 
L 494 744 
Q 775 591 1075 516 
Q 1375 441 1709 441 
Q 2250 441 2565 725 
Q 2881 1009 2881 1497 
Q 2881 1984 2565 2268 
Q 2250 2553 1709 2553 
Q 1456 2553 1204 2497 
Q 953 2441 691 2322 
L 691 4666 
z
" transform="scale(0.015625)"/>
       <path id="DejaVuSans-33" d="M 2597 2516 
Q 3050 2419 3304 2112 
Q 3559 1806 3559 1356 
Q 3559 666 3084 287 
Q 2609 -91 1734 -91 
Q 1441 -91 1130 -33 
Q 819 25 488 141 
L 488 750 
Q 750 597 1062 519 
Q 1375 441 1716 441 
Q 2309 441 2620 675 
Q 2931 909 2931 1356 
Q 2931 1769 2642 2001 
Q 2353 2234 1838 2234 
L 1294 2234 
L 1294 2753 
L 1863 2753 
Q 2328 2753 2575 2939 
Q 2822 3125 2822 3475 
Q 2822 3834 2567 4026 
Q 2313 4219 1838 4219 
Q 1578 4219 1281 4162 
Q 984 4106 628 3988 
L 628 4550 
Q 988 4650 1302 4700 
Q 1616 4750 1894 4750 
Q 2613 4750 3031 4423 
Q 3450 4097 3450 3541 
Q 3450 3153 3228 2886 
Q 3006 2619 2597 2516 
z
" transform="scale(0.015625)"/>
      </defs>
      <use xlink:href="#DejaVuSans-31"/>
      <use xlink:href="#DejaVuSans-35" transform="translate(63.623047 0)"/>
      <use xlink:href="#DejaVuSans-2c" transform="translate(127.246094 0)"/>
      <use xlink:href="#DejaVuSans-33" transform="translate(159.033203 0)"/>
      <use xlink:href="#DejaVuSans-33" transform="translate(222.65625 0)"/>
      <use xlink:href="#DejaVuSans-30" transform="translate(286.279297 0)"/>
     </g>
    </g>
   </g>
   <g id="text_25">
    <g clip-path="url(#p20b76706ae)">
     <!-- 19,113 -->
     <g style="fill: #333333" transform="translate(115.815257 88.290094) scale(0.05 -0.05)">
      <use xlink:href="#DejaVuSans-31"/>
      <use xlink:href="#DejaVuSans-39" transform="translate(63.623047 0)"/>
      <use xlink:href="#DejaVuSans-2c" transform="translate(127.246094 0)"/>
      <use xlink:href="#DejaVuSans-31" transform="translate(159.033203 0)"/>
      <use xlink:href="#DejaVuSans-31" transform="translate(222.65625 0)"/>
      <use xlink:href="#DejaVuSans-33" transform="translate(286.279297 0)"/>
     </g>
    </g>
   </g>
   <g id="text_26">
    <g clip-path="url(#p20b76706ae)">
     <!-- 13,525 -->
     <g style="fill: #333333" transform="translate(115.815257 65.199921) scale(0.05 -0.05)">
      <use xlink:href="#DejaVuSans-31"/>
      <use xlink:href="#DejaVuSans-33" transform="translate(63.623047 0)"/>
      <use xlink:href="#DejaVuSans-2c" transform="translate(127.246094 0)"/>
      <use xlink:href="#DejaVuSans-35" transform="translate(159.033203 0)"/>
      <use xlink:href="#DejaVuSans-32" transform="translate(222.65625 0)"/>
      <use xlink:href="#DejaVuSans-35" transform="translate(286.279297 0)"/>
     </g>
    </g>
   </g>
   <g id="text_27">
    <g clip-path="url(#p20b76706ae)">
     <!-- 24,200 -->
     <g style="fill: #333333" transform="translate(115.815257 42.109747) scale(0.05 -0.05)">
      <use xlink:href="#DejaVuSans-32"/>
      <use xlink:href="#DejaVuSans-34" transform="translate(63.623047 0)"/>
      <use xlink:href="#DejaVuSans-2c" transform="translate(127.246094 0)"/>
      <use xlink:href="#DejaVuSans-32" transform="translate(159.033203 0)"/>
      <use xlink:href="#DejaVuSans-30" transform="translate(222.65625 0)"/>
      <use xlink:href="#DejaVuSans-30" transform="translate(286.279297 0)"/>
     </g>
    </g>
   </g>
   <g id="text_28">
    <g clip-path="url(#p20b76706ae)">
     <!-- 9,364 -->
     <g style="fill: #333333" transform="translate(144.802031 134.470441) scale(0.05 -0.05)">
      <use xlink:href="#DejaVuSans-39"/>
      <use xlink:href="#DejaVuSans-2c" transform="translate(63.623047 0)"/>
      <use xlink:href="#DejaVuSans-33" transform="translate(95.410156 0)"/>
      <use xlink:href="#DejaVuSans-36" transform="translate(159.033203 0)"/>
      <use xlink:href="#DejaVuSans-34" transform="translate(222.65625 0)"/>
     </g>
    </g>
   </g>
   <g id="text_29">
    <g clip-path="url(#p20b76706ae)">
     <!-- 20,213 -->
     <g style="fill: #333333" transform="translate(143.211406 111.380267) scale(0.05 -0.05)">
      <use xlink:href="#DejaVuSans-32"/>
      <use xlink:href="#DejaVuSans-30" transform="translate(63.623047 0)"/>
      <use xlink:href="#DejaVuSans-2c" transform="translate(127.246094 0)"/>
      <use xlink:href="#DejaVuSans-32" transform="translate(159.033203 0)"/>
      <use xlink:href="#DejaVuSans-31" transform="translate(222.65625 0)"/>
      <use xlink:href="#DejaVuSans-33" transform="translate(286.279297 0)"/>
     </g>
    </g>
   </g>
   <g id="text_30">
    <g clip-path="url(#p20b76706ae)">
     <!-- 25,877 -->
     <g style="fill: #333333" transform="translate(143.211406 88.290094) scale(0.05 -0.05)">
      <use xlink:href="#DejaVuSans-32"/>
      <use xlink:href="#DejaVuSans-35" transform="translate(63.623047 0)"/>
      <use xlink:href="#DejaVuSans-2c" transform="translate(127.246094 0)"/>
      <use xlink:href="#DejaVuSans-38" transform="translate(159.033203 0)"/>
      <use xlink:href="#DejaVuSans-37" transform="translate(222.65625 0)"/>
      <use xlink:href="#DejaVuSans-37" transform="translate(286.279297 0)"/>
     </g>
    </g>
   </g>
   <g id="text_31">
    <g clip-path="url(#p20b76706ae)">
     <!-- 16,188 -->
     <g style="fill: #333333" transform="translate(143.211406 65.199921) scale(0.05 -0.05)">
      <use xlink:href="#DejaVuSans-31"/>
      <use xlink:href="#DejaVuSans-36" transform="translate(63.623047 0)"/>
      <use xlink:href="#DejaVuSans-2c" transform="translate(127.246094 0)"/>
      <use xlink:href="#DejaVuSans-31" transform="translate(159.033203 0)"/>
      <use xlink:href="#DejaVuSans-38" transform="translate(222.65625 0)"/>
      <use xlink:href="#DejaVuSans-38" transform="translate(286.279297 0)"/>
     </g>
    </g>
   </g>
   <g id="text_32">
    <g clip-path="url(#p20b76706ae)">
     <!-- 19,140 -->
     <g style="fill: #333333" transform="translate(143.211406 42.109747) scale(0.05 -0.05)">
      <use xlink:href="#DejaVuSans-31"/>
      <use xlink:href="#DejaVuSans-39" transform="translate(63.623047 0)"/>
      <use xlink:href="#DejaVuSans-2c" transform="translate(127.246094 0)"/>
      <use xlink:href="#DejaVuSans-31" transform="translate(159.033203 0)"/>
      <use xlink:href="#DejaVuSans-34" transform="translate(222.65625 0)"/>
      <use xlink:href="#DejaVuSans-30" transform="translate(286.279297 0)"/>
     </g>
    </g>
   </g>
   <g id="text_33">
    <g clip-path="url(#p20b76706ae)">
     <!-- 16,955 -->
     <g style="fill: #333333" transform="translate(170.607556 134.470441) scale(0.05 -0.05)">
      <use xlink:href="#DejaVuSans-31"/>
      <use xlink:href="#DejaVuSans-36" transform="translate(63.623047 0)"/>
      <use xlink:href="#DejaVuSans-2c" transform="translate(127.246094 0)"/>
      <use xlink:href="#DejaVuSans-39" transform="translate(159.033203 0)"/>
      <use xlink:href="#DejaVuSans-35" transform="translate(222.65625 0)"/>
      <use xlink:href="#DejaVuSans-35" transform="translate(286.279297 0)"/>
     </g>
    </g>
   </g>
   <g id="text_34">
    <g clip-path="url(#p20b76706ae)">
     <!-- 23,476 -->
     <g style="fill: #333333" transform="translate(170.607556 65.199921) scale(0.05 -0.05)">
      <use xlink:href="#DejaVuSans-32"/>
      <use xlink:href="#DejaVuSans-33" transform="translate(63.623047 0)"/>
      <use xlink:href="#DejaVuSans-2c" transform="translate(127.246094 0)"/>
      <use xlink:href="#DejaVuSans-34" transform="translate(159.033203 0)"/>
      <use xlink:href="#DejaVuSans-37" transform="translate(222.65625 0)"/>
      <use xlink:href="#DejaVuSans-36" transform="translate(286.279297 0)"/>
     </g>
    </g>
   </g>
   <g id="text_35">
    <g clip-path="url(#p20b76706ae)">
     <!-- 9,864 -->
     <g style="fill: #333333" transform="translate(199.59433 134.470441) scale(0.05 -0.05)">
      <use xlink:href="#DejaVuSans-39"/>
      <use xlink:href="#DejaVuSans-2c" transform="translate(63.623047 0)"/>
      <use xlink:href="#DejaVuSans-38" transform="translate(95.410156 0)"/>
      <use xlink:href="#DejaVuSans-36" transform="translate(159.033203 0)"/>
      <use xlink:href="#DejaVuSans-34" transform="translate(222.65625 0)"/>
     </g>
    </g>
   </g>
   <g id="text_36">
    <g clip-path="url(#p20b76706ae)">
     <!-- 21,982 -->
     <g style="fill: #333333" transform="translate(198.003705 111.380267) scale(0.05 -0.05)">
      <use xlink:href="#DejaVuSans-32"/>
      <use xlink:href="#DejaVuSans-31" transform="translate(63.623047 0)"/>
      <use xlink:href="#DejaVuSans-2c" transform="translate(127.246094 0)"/>
      <use xlink:href="#DejaVuSans-39" transform="translate(159.033203 0)"/>
      <use xlink:href="#DejaVuSans-38" transform="translate(222.65625 0)"/>
      <use xlink:href="#DejaVuSans-32" transform="translate(286.279297 0)"/>
     </g>
    </g>
   </g>
   <g id="text_37">
    <g clip-path="url(#p20b76706ae)">
     <!-- 9,871 -->
     <g style="fill: #333333" transform="translate(199.59433 65.199921) scale(0.05 -0.05)">
      <use xlink:href="#DejaVuSans-39"/>
      <use xlink:href="#DejaVuSans-2c" transform="translate(63.623047 0)"/>
      <use xlink:href="#DejaVuSans-38" transform="translate(95.410156 0)"/>
      <use xlink:href="#DejaVuSans-37" transform="translate(159.033203 0)"/>
      <use xlink:href="#DejaVuSans-31" transform="translate(222.65625 0)"/>
     </g>
    </g>
   </g>
   <g id="text_38">
    <g clip-path="url(#p20b76706ae)">
     <!-- 21,650 -->
     <g style="fill: #333333" transform="translate(198.003705 42.109747) scale(0.05 -0.05)">
      <use xlink:href="#DejaVuSans-32"/>
      <use xlink:href="#DejaVuSans-31" transform="translate(63.623047 0)"/>
      <use xlink:href="#DejaVuSans-2c" transform="translate(127.246094 0)"/>
      <use xlink:href="#DejaVuSans-36" transform="translate(159.033203 0)"/>
      <use xlink:href="#DejaVuSans-35" transform="translate(222.65625 0)"/>
      <use xlink:href="#DejaVuSans-30" transform="translate(286.279297 0)"/>
     </g>
    </g>
   </g>
   <g id="text_39">
    <g clip-path="url(#p20b76706ae)">
     <!-- 26,102 -->
     <g style="fill: #333333" transform="translate(198.003705 19.019574) scale(0.05 -0.05)">
      <use xlink:href="#DejaVuSans-32"/>
      <use xlink:href="#DejaVuSans-36" transform="translate(63.623047 0)"/>
      <use xlink:href="#DejaVuSans-2c" transform="translate(127.246094 0)"/>
      <use xlink:href="#DejaVuSans-31" transform="translate(159.033203 0)"/>
      <use xlink:href="#DejaVuSans-30" transform="translate(222.65625 0)"/>
      <use xlink:href="#DejaVuSans-32" transform="translate(286.279297 0)"/>
     </g>
    </g>
   </g>
   <g id="text_40">
    <g clip-path="url(#p20b76706ae)">
     <!-- 3,861 -->
     <g style="fill: #333333" transform="translate(226.990479 134.470441) scale(0.05 -0.05)">
      <use xlink:href="#DejaVuSans-33"/>
      <use xlink:href="#DejaVuSans-2c" transform="translate(63.623047 0)"/>
      <use xlink:href="#DejaVuSans-38" transform="translate(95.410156 0)"/>
      <use xlink:href="#DejaVuSans-36" transform="translate(159.033203 0)"/>
      <use xlink:href="#DejaVuSans-31" transform="translate(222.65625 0)"/>
     </g>
    </g>
   </g>
   <g id="text_41">
    <g clip-path="url(#p20b76706ae)">
     <!-- 11,230 -->
     <g style="fill: #333333" transform="translate(225.399854 111.380267) scale(0.05 -0.05)">
      <use xlink:href="#DejaVuSans-31"/>
      <use xlink:href="#DejaVuSans-31" transform="translate(63.623047 0)"/>
      <use xlink:href="#DejaVuSans-2c" transform="translate(127.246094 0)"/>
      <use xlink:href="#DejaVuSans-32" transform="translate(159.033203 0)"/>
      <use xlink:href="#DejaVuSans-33" transform="translate(222.65625 0)"/>
      <use xlink:href="#DejaVuSans-30" transform="translate(286.279297 0)"/>
     </g>
    </g>
   </g>
   <g id="text_42">
    <g clip-path="url(#p20b76706ae)">
     <!-- 14,780 -->
     <g style="fill: #333333" transform="translate(225.399854 88.290094) scale(0.05 -0.05)">
      <use xlink:href="#DejaVuSans-31"/>
      <use xlink:href="#DejaVuSans-34" transform="translate(63.623047 0)"/>
      <use xlink:href="#DejaVuSans-2c" transform="translate(127.246094 0)"/>
      <use xlink:href="#DejaVuSans-37" transform="translate(159.033203 0)"/>
      <use xlink:href="#DejaVuSans-38" transform="translate(222.65625 0)"/>
      <use xlink:href="#DejaVuSans-30" transform="translate(286.279297 0)"/>
     </g>
    </g>
   </g>
   <g id="text_43">
    <g clip-path="url(#p20b76706ae)">
     <!-- 6,265 -->
     <g style="fill: #333333" transform="translate(226.990479 65.199921) scale(0.05 -0.05)">
      <use xlink:href="#DejaVuSans-36"/>
      <use xlink:href="#DejaVuSans-2c" transform="translate(63.623047 0)"/>
      <use xlink:href="#DejaVuSans-32" transform="translate(95.410156 0)"/>
      <use xlink:href="#DejaVuSans-36" transform="translate(159.033203 0)"/>
      <use xlink:href="#DejaVuSans-35" transform="translate(222.65625 0)"/>
     </g>
    </g>
   </g>
   <g id="text_44">
    <g clip-path="url(#p20b76706ae)">
     <!-- 8,021 -->
     <g style="fill: #333333" transform="translate(226.990479 42.109747) scale(0.05 -0.05)">
      <use xlink:href="#DejaVuSans-38"/>
      <use xlink:href="#DejaVuSans-2c" transform="translate(63.623047 0)"/>
      <use xlink:href="#DejaVuSans-30" transform="translate(95.410156 0)"/>
      <use xlink:href="#DejaVuSans-32" transform="translate(159.033203 0)"/>
      <use xlink:href="#DejaVuSans-31" transform="translate(222.65625 0)"/>
     </g>
    </g>
   </g>
   <g id="text_45">
    <g clip-path="url(#p20b76706ae)">
     <!-- 11,334 -->
     <g style="fill: #333333" transform="translate(225.399854 19.019574) scale(0.05 -0.05)">
      <use xlink:href="#DejaVuSans-31"/>
      <use xlink:href="#DejaVuSans-31" transform="translate(63.623047 0)"/>
      <use xlink:href="#DejaVuSans-2c" transform="translate(127.246094 0)"/>
      <use xlink:href="#DejaVuSans-33" transform="translate(159.033203 0)"/>
      <use xlink:href="#DejaVuSans-33" transform="translate(222.65625 0)"/>
      <use xlink:href="#DejaVuSans-34" transform="translate(286.279297 0)"/>
     </g>
    </g>
   </g>
   <g id="text_46">
    <g clip-path="url(#p20b76706ae)">
     <!-- 30,018 -->
     <g style="fill: #ffffff" transform="translate(88.419108 111.380267) scale(0.05 -0.05)">
      <use xlink:href="#DejaVuSans-33"/>
      <use xlink:href="#DejaVuSans-30" transform="translate(63.623047 0)"/>
      <use xlink:href="#DejaVuSans-2c" transform="translate(127.246094 0)"/>
      <use xlink:href="#DejaVuSans-30" transform="translate(159.033203 0)"/>
      <use xlink:href="#DejaVuSans-31" transform="translate(222.65625 0)"/>
      <use xlink:href="#DejaVuSans-38" transform="translate(286.279297 0)"/>
     </g>
    </g>
   </g>
   <g id="text_47">
    <g clip-path="url(#p20b76706ae)">
     <!-- 34,366 -->
     <g style="fill: #ffffff" transform="translate(88.419108 88.290094) scale(0.05 -0.05)">
      <use xlink:href="#DejaVuSans-33"/>
      <use xlink:href="#DejaVuSans-34" transform="translate(63.623047 0)"/>
      <use xlink:href="#DejaVuSans-2c" transform="translate(127.246094 0)"/>
      <use xlink:href="#DejaVuSans-33" transform="translate(159.033203 0)"/>
      <use xlink:href="#DejaVuSans-36" transform="translate(222.65625 0)"/>
      <use xlink:href="#DejaVuSans-36" transform="translate(286.279297 0)"/>
     </g>
    </g>
   </g>
   <g id="text_48">
    <g clip-path="url(#p20b76706ae)">
     <!-- 50,500 -->
     <g style="fill: #ffffff" transform="translate(88.419108 19.019574) scale(0.05 -0.05)">
      <use xlink:href="#DejaVuSans-35"/>
      <use xlink:href="#DejaVuSans-30" transform="translate(63.623047 0)"/>
      <use xlink:href="#DejaVuSans-2c" transform="translate(127.246094 0)"/>
      <use xlink:href="#DejaVuSans-35" transform="translate(159.033203 0)"/>
      <use xlink:href="#DejaVuSans-30" transform="translate(222.65625 0)"/>
      <use xlink:href="#DejaVuSans-30" transform="translate(286.279297 0)"/>
     </g>
    </g>
   </g>
   <g id="text_49">
    <g clip-path="url(#p20b76706ae)">
     <!-- 35,736 -->
     <g style="fill: #ffffff" transform="translate(115.815257 19.019574) scale(0.05 -0.05)">
      <use xlink:href="#DejaVuSans-33"/>
      <use xlink:href="#DejaVuSans-35" transform="translate(63.623047 0)"/>
      <use xlink:href="#DejaVuSans-2c" transform="translate(127.246094 0)"/>
      <use xlink:href="#DejaVuSans-37" transform="translate(159.033203 0)"/>
      <use xlink:href="#DejaVuSans-33" transform="translate(222.65625 0)"/>
      <use xlink:href="#DejaVuSans-36" transform="translate(286.279297 0)"/>
     </g>
    </g>
   </g>
   <g id="text_50">
    <g clip-path="url(#p20b76706ae)">
     <!-- 31,588 -->
     <g style="fill: #ffffff" transform="translate(143.211406 19.019574) scale(0.05 -0.05)">
      <use xlink:href="#DejaVuSans-33"/>
      <use xlink:href="#DejaVuSans-31" transform="translate(63.623047 0)"/>
      <use xlink:href="#DejaVuSans-2c" transform="translate(127.246094 0)"/>
      <use xlink:href="#DejaVuSans-35" transform="translate(159.033203 0)"/>
      <use xlink:href="#DejaVuSans-38" transform="translate(222.65625 0)"/>
      <use xlink:href="#DejaVuSans-38" transform="translate(286.279297 0)"/>
     </g>
    </g>
   </g>
   <g id="text_51">
    <g clip-path="url(#p20b76706ae)">
     <!-- 35,037 -->
     <g style="fill: #ffffff" transform="translate(170.607556 111.380267) scale(0.05 -0.05)">
      <use xlink:href="#DejaVuSans-33"/>
      <use xlink:href="#DejaVuSans-35" transform="translate(63.623047 0)"/>
      <use xlink:href="#DejaVuSans-2c" transform="translate(127.246094 0)"/>
      <use xlink:href="#DejaVuSans-30" transform="translate(159.033203 0)"/>
      <use xlink:href="#DejaVuSans-33" transform="translate(222.65625 0)"/>
      <use xlink:href="#DejaVuSans-37" transform="translate(286.279297 0)"/>
     </g>
    </g>
   </g>
   <g id="text_52">
    <g clip-path="url(#p20b76706ae)">
     <!-- 39,019 -->
     <g style="fill: #ffffff" transform="translate(170.607556 88.290094) scale(0.05 -0.05)">
      <use xlink:href="#DejaVuSans-33"/>
      <use xlink:href="#DejaVuSans-39" transform="translate(63.623047 0)"/>
      <use xlink:href="#DejaVuSans-2c" transform="translate(127.246094 0)"/>
      <use xlink:href="#DejaVuSans-30" transform="translate(159.033203 0)"/>
      <use xlink:href="#DejaVuSans-31" transform="translate(222.65625 0)"/>
      <use xlink:href="#DejaVuSans-39" transform="translate(286.279297 0)"/>
     </g>
    </g>
   </g>
   <g id="text_53">
    <g clip-path="url(#p20b76706ae)">
     <!-- 36,494 -->
     <g style="fill: #ffffff" transform="translate(170.607556 42.109747) scale(0.05 -0.05)">
      <use xlink:href="#DejaVuSans-33"/>
      <use xlink:href="#DejaVuSans-36" transform="translate(63.623047 0)"/>
      <use xlink:href="#DejaVuSans-2c" transform="translate(127.246094 0)"/>
      <use xlink:href="#DejaVuSans-34" transform="translate(159.033203 0)"/>
      <use xlink:href="#DejaVuSans-39" transform="translate(222.65625 0)"/>
      <use xlink:href="#DejaVuSans-34" transform="translate(286.279297 0)"/>
     </g>
    </g>
   </g>
   <g id="text_54">
    <g clip-path="url(#p20b76706ae)">
     <!-- 45,313 -->
     <g style="fill: #ffffff" transform="translate(170.607556 19.019574) scale(0.05 -0.05)">
      <use xlink:href="#DejaVuSans-34"/>
      <use xlink:href="#DejaVuSans-35" transform="translate(63.623047 0)"/>
      <use xlink:href="#DejaVuSans-2c" transform="translate(127.246094 0)"/>
      <use xlink:href="#DejaVuSans-33" transform="translate(159.033203 0)"/>
      <use xlink:href="#DejaVuSans-31" transform="translate(222.65625 0)"/>
      <use xlink:href="#DejaVuSans-33" transform="translate(286.279297 0)"/>
     </g>
    </g>
   </g>
   <g id="text_55">
    <g clip-path="url(#p20b76706ae)">
     <!-- 31,961 -->
     <g style="fill: #ffffff" transform="translate(198.003705 88.290094) scale(0.05 -0.05)">
      <use xlink:href="#DejaVuSans-33"/>
      <use xlink:href="#DejaVuSans-31" transform="translate(63.623047 0)"/>
      <use xlink:href="#DejaVuSans-2c" transform="translate(127.246094 0)"/>
      <use xlink:href="#DejaVuSans-39" transform="translate(159.033203 0)"/>
      <use xlink:href="#DejaVuSans-36" transform="translate(222.65625 0)"/>
      <use xlink:href="#DejaVuSans-31" transform="translate(286.279297 0)"/>
     </g>
    </g>
   </g>
  </g>
 </g>
 <defs>
  <clipPath id="p20b76706ae">
   <rect x="53.332925" y="6.0948" width="197.252275" height="138.54104"/>
  </clipPath>
 </defs>
</svg>
